M48
;Layer_Color=9474304
;FILE_FORMAT=4:4
METRIC,LZ
;TYPE=PLATED
T01F00S00C0.2500
%
T01
X-00419073Y00019071
X-00363568Y00019525
X-00336308
X-003346Y00051877
X-003691Y00057682
X-0030656Y0005815
X-0028966Y00124133
X-0026115Y00330285
X-00250888Y00321554
X-0011684Y0035199
X-00088453Y00359592
X-0008856Y0038354
X-0010831
X-0007112Y0038862
X-00058725Y0032568
X-00019284Y00337361
X-00019256Y00364248
X-0031458Y00071119
X-003426Y00070665
X-00373178
X-00388305Y00078637
X-0040845
Y00078239
X-0040164Y001198
X-00373177Y00124133
M30
