G04*
G04 #@! TF.GenerationSoftware,Altium Limited,Altium Designer,24.1.2 (44)*
G04*
G04 Layer_Physical_Order=2*
G04 Layer_Color=32768*
%FSLAX25Y25*%
%MOIN*%
G70*
G04*
G04 #@! TF.SameCoordinates,00511CFA-0F04-46CA-AFF9-E4457DF0149F*
G04*
G04*
G04 #@! TF.FilePolarity,Negative*
G04*
G01*
G75*
%ADD26C,0.04000*%
%ADD27C,0.03984*%
G36*
X-63674Y144286D02*
X-62357Y143807D01*
X-61208Y143003D01*
X-60307Y141929D01*
X-59714Y140658D01*
X-59471Y139277D01*
X-59593Y137880D01*
X-60073Y136563D01*
X-60877Y135414D01*
X-61951Y134513D01*
X-62586Y134217D01*
X-62586Y134217D01*
X-65499Y132819D01*
X-71231Y129836D01*
X-76826Y126605D01*
X-82275Y123134D01*
X-84942Y121310D01*
X-84942Y121310D01*
X-85516Y120907D01*
X-86834Y120428D01*
X-88231Y120306D01*
X-89611Y120549D01*
X-90882Y121142D01*
X-91956Y122043D01*
X-92760Y123192D01*
X-93240Y124509D01*
X-93362Y125906D01*
X-93119Y127287D01*
X-92526Y128557D01*
X-91625Y129631D01*
X-91050Y130034D01*
X-88213Y132020D01*
X-82371Y135742D01*
X-76371Y139206D01*
X-70226Y142405D01*
X-67087Y143869D01*
X-66452Y144165D01*
X-65071Y144409D01*
X-63674Y144286D01*
D02*
G37*
G36*
X-124509Y93240D02*
X-123192Y92760D01*
X-122043Y91956D01*
X-121142Y90882D01*
X-120549Y89611D01*
X-120306Y88231D01*
X-120428Y86834D01*
X-120907Y85516D01*
X-121310Y84942D01*
X-123134Y82275D01*
X-126605Y76826D01*
X-129836Y71230D01*
X-132819Y65499D01*
X-134217Y62586D01*
X-134217D01*
X-134513Y61951D01*
X-135414Y60877D01*
X-136563Y60073D01*
X-137880Y59593D01*
X-139277Y59471D01*
X-140658Y59714D01*
X-141929Y60307D01*
X-143003Y61208D01*
X-143807Y62357D01*
X-144286Y63674D01*
X-144409Y65071D01*
X-144165Y66452D01*
X-143869Y67087D01*
Y67087D01*
X-142405Y70226D01*
X-139206Y76371D01*
X-135742Y82371D01*
X-132020Y88213D01*
X-130034Y91050D01*
X-129631Y91625D01*
X-128557Y92526D01*
X-127287Y93119D01*
X-125906Y93362D01*
X-124509Y93240D01*
D02*
G37*
D26*
X-125906Y93362D02*
X-124509Y93240D01*
X-123192Y92760D01*
X-122043Y91956D01*
X-121142Y90882D01*
X-120549Y89611D01*
X-120306Y88231D01*
X-120428Y86834D02*
X-120306Y88231D01*
X-120907Y85516D02*
X-120428Y86834D01*
X-121310Y84942D02*
X-120907Y85516D01*
X-123134Y82275D02*
X-121310Y84942D01*
X-126605Y76826D02*
X-123134Y82275D01*
X-129836Y71230D02*
X-126605Y76826D01*
X-132819Y65499D02*
X-129836Y71230D01*
X-134217Y62586D02*
X-132819Y65499D01*
X-134217Y62586D02*
X-134217D01*
X-134513Y61951D02*
X-134217Y62586D01*
X-135414Y60877D02*
X-134513Y61951D01*
X-136563Y60073D02*
X-135414Y60877D01*
X-137880Y59593D02*
X-136563Y60073D01*
X-139277Y59471D02*
X-137880Y59593D01*
X-140658Y59714D02*
X-139277Y59471D01*
X-141929Y60307D02*
X-140658Y59714D01*
X-143003Y61208D02*
X-141929Y60307D01*
X-143807Y62357D02*
X-143003Y61208D01*
X-144286Y63674D02*
X-143807Y62357D01*
X-144409Y65071D02*
X-144286Y63674D01*
X-144409Y65071D02*
X-144165Y66452D01*
X-143869Y67087D01*
Y67087D01*
X-142405Y70226D01*
X-139206Y76371D01*
X-135742Y82371D01*
X-132020Y88213D01*
X-130034Y91050D01*
X-129631Y91625D01*
X-128557Y92526D01*
X-127287Y93119D01*
X-125906Y93362D01*
X-65071Y144409D02*
X-63674Y144286D01*
X-62357Y143807D01*
X-61208Y143003D01*
X-60307Y141929D01*
X-59714Y140658D01*
X-59471Y139277D01*
X-59593Y137880D02*
X-59471Y139277D01*
X-60073Y136563D02*
X-59593Y137880D01*
X-60877Y135414D02*
X-60073Y136563D01*
X-61951Y134513D02*
X-60877Y135414D01*
X-62586Y134217D02*
X-61951Y134513D01*
X-62586Y134217D02*
X-62586Y134217D01*
X-65499Y132819D02*
X-62586Y134217D01*
X-71231Y129836D02*
X-65499Y132819D01*
X-76826Y126605D02*
X-71231Y129836D01*
X-82275Y123134D02*
X-76826Y126605D01*
X-84942Y121310D02*
X-82275Y123134D01*
X-84942Y121310D02*
X-84942Y121310D01*
X-85516Y120907D02*
X-84942Y121310D01*
X-86834Y120428D02*
X-85516Y120907D01*
X-88231Y120306D02*
X-86834Y120428D01*
X-89611Y120549D02*
X-88231Y120306D01*
X-90882Y121142D02*
X-89611Y120549D01*
X-91956Y122043D02*
X-90882Y121142D01*
X-92760Y123192D02*
X-91956Y122043D01*
X-93240Y124509D02*
X-92760Y123192D01*
X-93362Y125906D02*
X-93240Y124509D01*
X-93362Y125906D02*
X-93119Y127287D01*
X-92526Y128557D01*
X-91625Y129631D01*
X-91050Y130034D01*
X-88213Y132020D01*
X-82371Y135742D01*
X-76371Y139206D01*
X-70226Y142405D01*
X-67087Y143869D01*
X-66452Y144165D01*
X-65071Y144409D01*
X-4649Y171197D02*
X-3659Y171028D01*
X-5150Y171182D02*
X-4649Y171197D01*
X-9192Y171061D02*
X-5150Y171182D01*
X-17254Y170437D02*
X-9192Y171061D01*
X-25278Y169432D02*
X-17254Y170437D01*
X-33245Y168051D02*
X-25278Y169432D01*
X-41138Y166295D02*
X-33245Y168051D01*
X-48940Y164168D02*
X-41138Y166295D01*
X-56632Y161676D02*
X-48940Y164168D01*
X-64199Y158823D02*
X-56632Y161676D01*
X-71622Y155617D02*
X-64199Y158823D01*
X-78886Y152064D02*
X-71622Y155617D01*
X-85974Y148172D02*
X-78886Y152064D01*
X-92870Y143949D02*
X-85974Y148172D01*
X-99560Y139407D02*
X-92870Y143949D01*
X-106027Y134553D02*
X-99560Y139407D01*
X-112259Y129400D02*
X-106027Y134553D01*
X-118240Y123958D02*
X-112259Y129400D01*
X-123958Y118240D02*
X-118240Y123958D01*
X-129400Y112259D02*
X-123958Y118240D01*
X-134553Y106027D02*
X-129400Y112259D01*
X-139407Y99560D02*
X-134553Y106027D01*
X-143949Y92870D02*
X-139407Y99560D01*
X-148172Y85974D02*
X-143949Y92870D01*
X-152064Y78886D02*
X-148172Y85974D01*
X-155617Y71622D02*
X-152064Y78886D01*
X-158823Y64199D02*
X-155617Y71622D01*
X-161676Y56632D02*
X-158823Y64199D01*
X-164168Y48940D02*
X-161676Y56632D01*
X-166295Y41138D02*
X-164168Y48940D01*
X-168051Y33245D02*
X-166295Y41138D01*
X-169432Y25278D02*
X-168051Y33245D01*
X-170437Y17254D02*
X-169432Y25278D01*
X-171061Y9192D02*
X-170437Y17254D01*
X-171182Y5150D02*
X-171061Y9192D01*
X-171197Y4649D02*
X-171182Y5150D01*
X-171197Y4649D02*
X-171028Y3659D01*
X-170665Y2723D01*
X-170123Y1878D01*
X-169423Y1158D01*
X-168595Y591D01*
X-167671Y200D01*
X-166687Y0D01*
X-121938D01*
X-120996Y182D01*
X-120107Y540D01*
X-119301Y1061D01*
X-118609Y1725D01*
X-118056Y2509D01*
X-117662Y3383D01*
X-117441Y4317D01*
X-117422Y4796D01*
X-117253Y7916D01*
X-116666Y14138D01*
X-115750Y20320D01*
X-114506Y26445D01*
X-112938Y32494D01*
X-111051Y38452D01*
X-108850Y44301D01*
X-106341Y50025D01*
X-103532Y55607D01*
X-100429Y61032D01*
X-97043Y66284D01*
X-93382Y71349D01*
X-89457Y76212D01*
X-85279Y80860D01*
X-80860Y85279D01*
X-76213Y89457D01*
X-71349Y93382D01*
X-66284Y97043D01*
X-61032Y100429D01*
X-55607Y103532D01*
X-50025Y106341D01*
X-44301Y108850D01*
X-38452Y111051D01*
X-32494Y112938D01*
X-26445Y114506D01*
X-20320Y115750D01*
X-14138Y116666D01*
X-7916Y117253D01*
X-4796Y117422D01*
X-4317Y117441D01*
X-3383Y117662D01*
X-2509Y118056D01*
X-1725Y118609D01*
X-1061Y119301D01*
X-540Y120107D01*
X-182Y120996D01*
X-0Y121938D01*
Y122418D01*
Y166185D01*
Y166687D01*
X-200Y167671D02*
X-0Y166687D01*
X-591Y168595D02*
X-200Y167671D01*
X-1158Y169423D02*
X-591Y168595D01*
X-1878Y170123D02*
X-1158Y169423D01*
X-2723Y170665D02*
X-1878Y170123D01*
X-3659Y171028D02*
X-2723Y170665D01*
D27*
X-34824Y141572D02*
D03*
X-114039Y48871D02*
D03*
X-120693Y22894D02*
D03*
X-152876Y30959D02*
D03*
X-7592Y132819D02*
D03*
X-7581Y143405D02*
D03*
X-46000Y138579D02*
D03*
X-28000Y153000D02*
D03*
X-160807Y30803D02*
D03*
X-42642Y151000D02*
D03*
X-102815Y130034D02*
D03*
X-160807Y30959D02*
D03*
X-131732Y20424D02*
D03*
X-143137Y7687D02*
D03*
X-132405D02*
D03*
X-146920Y27821D02*
D03*
X-158126Y47165D02*
D03*
X-123850Y27999D02*
D03*
X-134882Y27821D02*
D03*
X-164989Y7508D02*
D03*
M02*
