G04*
G04 #@! TF.GenerationSoftware,Altium Limited,Altium Designer,24.1.2 (44)*
G04*
G04 Layer_Color=8388736*
%FSLAX25Y25*%
%MOIN*%
G70*
G04*
G04 #@! TF.SameCoordinates,00511CFA-0F04-46CA-AFF9-E4457DF0149F*
G04*
G04*
G04 #@! TF.FilePolarity,Negative*
G04*
G01*
G75*
%ADD13R,0.03937X0.01968*%
%ADD14R,0.06693X0.04724*%
G04:AMPARAMS|DCode=15|XSize=71.18mil|YSize=49.92mil|CornerRadius=13.74mil|HoleSize=0mil|Usage=FLASHONLY|Rotation=180.000|XOffset=0mil|YOffset=0mil|HoleType=Round|Shape=RoundedRectangle|*
%AMROUNDEDRECTD15*
21,1,0.07118,0.02244,0,0,180.0*
21,1,0.04370,0.04992,0,0,180.0*
1,1,0.02748,-0.02185,0.01122*
1,1,0.02748,0.02185,0.01122*
1,1,0.02748,0.02185,-0.01122*
1,1,0.02748,-0.02185,-0.01122*
%
%ADD15ROUNDEDRECTD15*%
%ADD16R,0.07906X0.06724*%
%ADD17R,0.01968X0.03937*%
%ADD18R,0.04724X0.06693*%
%ADD19C,0.04362*%
D13*
X-15630Y132123D02*
D03*
Y135272D02*
D03*
Y138422D02*
D03*
Y141572D02*
D03*
Y144721D02*
D03*
D14*
X-7953Y127005D02*
D03*
Y149839D02*
D03*
D15*
X-158126Y35354D02*
D03*
Y42401D02*
D03*
D16*
X-134964Y34370D02*
D03*
Y42638D02*
D03*
X-122617Y34241D02*
D03*
X-122617Y42508D02*
D03*
X-146920Y34567D02*
D03*
X-146920Y42834D02*
D03*
D17*
X-144331Y15364D02*
D03*
X-141181D02*
D03*
X-138031D02*
D03*
X-134882D02*
D03*
X-131732D02*
D03*
D18*
X-149449Y7687D02*
D03*
X-126614D02*
D03*
D19*
X-34824Y141572D02*
D03*
X-114039Y48871D02*
D03*
X-120693Y22894D02*
D03*
X-152876Y30959D02*
D03*
X-146920Y48871D02*
D03*
X-7592Y132819D02*
D03*
X-7581Y143405D02*
D03*
X-23120Y128221D02*
D03*
X-46000Y138579D02*
D03*
X-28000Y153000D02*
D03*
X-160807Y30803D02*
D03*
X-34866Y151000D02*
D03*
X-42642D02*
D03*
X-102815Y130034D02*
D03*
X-98775Y126596D02*
D03*
X-160807Y30959D02*
D03*
X-131732Y20424D02*
D03*
X-145315Y22709D02*
D03*
X-143137Y7687D02*
D03*
X-132405D02*
D03*
X-146920Y27821D02*
D03*
X-158126Y47165D02*
D03*
X-123850Y27999D02*
D03*
X-134882Y27821D02*
D03*
X-164989Y7508D02*
D03*
M02*
