G04*
G04 #@! TF.GenerationSoftware,Altium Limited,Altium Designer,24.1.2 (44)*
G04*
G04 Layer_Color=16711935*
%FSLAX25Y25*%
%MOIN*%
G70*
G04*
G04 #@! TF.SameCoordinates,00511CFA-0F04-46CA-AFF9-E4457DF0149F*
G04*
G04*
G04 #@! TF.FilePolarity,Positive*
G04*
G01*
G75*
%ADD11C,0.00787*%
%ADD37C,0.00394*%
G36*
X-11146Y140184D02*
X-11150D01*
X-11164D01*
X-11186D01*
X-11215Y140187D01*
X-11248Y140191D01*
X-11284Y140198D01*
X-11321Y140206D01*
X-11361Y140220D01*
X-11364D01*
X-11368Y140224D01*
X-11390Y140231D01*
X-11423Y140246D01*
X-11466Y140267D01*
X-11517Y140296D01*
X-11576Y140333D01*
X-11634Y140373D01*
X-11696Y140424D01*
X-11699D01*
X-11703Y140431D01*
X-11725Y140449D01*
X-11758Y140482D01*
X-11805Y140530D01*
X-11859Y140584D01*
X-11925Y140653D01*
X-11998Y140737D01*
X-12074Y140828D01*
X-12078Y140832D01*
X-12089Y140846D01*
X-12107Y140868D01*
X-12129Y140893D01*
X-12158Y140926D01*
X-12191Y140966D01*
X-12227Y141006D01*
X-12267Y141054D01*
X-12354Y141145D01*
X-12442Y141236D01*
X-12486Y141279D01*
X-12529Y141319D01*
X-12569Y141356D01*
X-12609Y141385D01*
X-12613D01*
X-12617Y141392D01*
X-12628Y141400D01*
X-12642Y141407D01*
X-12682Y141432D01*
X-12729Y141461D01*
X-12788Y141487D01*
X-12850Y141512D01*
X-12919Y141527D01*
X-12984Y141534D01*
X-12988D01*
X-12991D01*
X-13013Y141531D01*
X-13050Y141527D01*
X-13090Y141516D01*
X-13141Y141501D01*
X-13192Y141476D01*
X-13243Y141443D01*
X-13294Y141400D01*
X-13301Y141392D01*
X-13316Y141374D01*
X-13334Y141349D01*
X-13359Y141308D01*
X-13381Y141258D01*
X-13403Y141199D01*
X-13417Y141130D01*
X-13421Y141054D01*
Y141032D01*
X-13417Y141017D01*
X-13414Y140974D01*
X-13403Y140923D01*
X-13388Y140868D01*
X-13363Y140806D01*
X-13330Y140748D01*
X-13286Y140693D01*
X-13279Y140686D01*
X-13261Y140672D01*
X-13232Y140650D01*
X-13188Y140628D01*
X-13137Y140602D01*
X-13072Y140580D01*
X-12999Y140566D01*
X-12915Y140559D01*
X-12948Y140242D01*
X-12952D01*
X-12962Y140246D01*
X-12981D01*
X-13006Y140249D01*
X-13035Y140257D01*
X-13068Y140264D01*
X-13108Y140275D01*
X-13148Y140286D01*
X-13235Y140315D01*
X-13323Y140358D01*
X-13366Y140384D01*
X-13410Y140417D01*
X-13450Y140449D01*
X-13487Y140486D01*
X-13490Y140489D01*
X-13494Y140497D01*
X-13505Y140508D01*
X-13516Y140526D01*
X-13530Y140548D01*
X-13545Y140573D01*
X-13563Y140602D01*
X-13581Y140639D01*
X-13599Y140679D01*
X-13618Y140722D01*
X-13632Y140770D01*
X-13647Y140821D01*
X-13658Y140875D01*
X-13669Y140934D01*
X-13672Y140995D01*
X-13676Y141061D01*
Y141097D01*
X-13672Y141123D01*
X-13669Y141152D01*
X-13665Y141188D01*
X-13658Y141228D01*
X-13650Y141268D01*
X-13625Y141363D01*
X-13589Y141458D01*
X-13567Y141505D01*
X-13541Y141552D01*
X-13508Y141596D01*
X-13472Y141636D01*
X-13468Y141640D01*
X-13465Y141647D01*
X-13450Y141654D01*
X-13436Y141669D01*
X-13417Y141687D01*
X-13392Y141705D01*
X-13366Y141723D01*
X-13334Y141745D01*
X-13264Y141782D01*
X-13177Y141818D01*
X-13134Y141833D01*
X-13082Y141840D01*
X-13032Y141847D01*
X-12977Y141851D01*
X-12970D01*
X-12952D01*
X-12922Y141847D01*
X-12882Y141843D01*
X-12839Y141836D01*
X-12788Y141822D01*
X-12733Y141807D01*
X-12678Y141785D01*
X-12671Y141782D01*
X-12653Y141774D01*
X-12624Y141760D01*
X-12584Y141738D01*
X-12540Y141709D01*
X-12486Y141673D01*
X-12431Y141629D01*
X-12369Y141578D01*
X-12362Y141570D01*
X-12340Y141552D01*
X-12322Y141534D01*
X-12304Y141516D01*
X-12282Y141494D01*
X-12253Y141465D01*
X-12224Y141436D01*
X-12191Y141400D01*
X-12154Y141363D01*
X-12114Y141319D01*
X-12074Y141272D01*
X-12027Y141221D01*
X-11980Y141163D01*
X-11929Y141105D01*
X-11925Y141101D01*
X-11918Y141094D01*
X-11907Y141079D01*
X-11892Y141061D01*
X-11870Y141039D01*
X-11849Y141014D01*
X-11801Y140955D01*
X-11747Y140893D01*
X-11692Y140835D01*
X-11645Y140784D01*
X-11626Y140762D01*
X-11608Y140744D01*
X-11605Y140741D01*
X-11594Y140730D01*
X-11579Y140715D01*
X-11557Y140697D01*
X-11532Y140679D01*
X-11506Y140657D01*
X-11445Y140613D01*
Y141854D01*
X-11146D01*
Y140184D01*
D02*
G37*
G36*
X-11867Y139805D02*
X-11838D01*
X-11768Y139798D01*
X-11688Y139791D01*
X-11605Y139776D01*
X-11528Y139754D01*
X-11455Y139729D01*
X-11452D01*
X-11448Y139725D01*
X-11426Y139714D01*
X-11397Y139696D01*
X-11357Y139671D01*
X-11317Y139634D01*
X-11273Y139594D01*
X-11230Y139543D01*
X-11193Y139485D01*
X-11190Y139478D01*
X-11179Y139456D01*
X-11164Y139423D01*
X-11150Y139376D01*
X-11131Y139317D01*
X-11117Y139252D01*
X-11106Y139179D01*
X-11102Y139099D01*
Y139066D01*
X-11106Y139044D01*
X-11110Y139015D01*
X-11113Y138986D01*
X-11128Y138910D01*
X-11150Y138830D01*
X-11182Y138746D01*
X-11204Y138702D01*
X-11230Y138662D01*
X-11259Y138626D01*
X-11292Y138589D01*
X-11295Y138586D01*
X-11299Y138582D01*
X-11314Y138575D01*
X-11328Y138564D01*
X-11346Y138549D01*
X-11372Y138535D01*
X-11401Y138520D01*
X-11434Y138502D01*
X-11470Y138487D01*
X-11514Y138473D01*
X-11557Y138458D01*
X-11608Y138444D01*
X-11663Y138436D01*
X-11725Y138426D01*
X-11787Y138422D01*
X-11856D01*
X-11900Y138724D01*
X-11896D01*
X-11889D01*
X-11874D01*
X-11852Y138728D01*
X-11830Y138731D01*
X-11805D01*
X-11743Y138742D01*
X-11677Y138753D01*
X-11612Y138775D01*
X-11554Y138797D01*
X-11528Y138811D01*
X-11506Y138830D01*
X-11503Y138833D01*
X-11492Y138848D01*
X-11474Y138870D01*
X-11455Y138899D01*
X-11434Y138939D01*
X-11419Y138982D01*
X-11405Y139037D01*
X-11401Y139095D01*
Y139117D01*
X-11405Y139139D01*
X-11408Y139172D01*
X-11415Y139205D01*
X-11423Y139241D01*
X-11437Y139277D01*
X-11455Y139314D01*
X-11459Y139317D01*
X-11466Y139328D01*
X-11481Y139343D01*
X-11496Y139365D01*
X-11521Y139383D01*
X-11546Y139405D01*
X-11576Y139423D01*
X-11612Y139437D01*
X-11616D01*
X-11630Y139445D01*
X-11656Y139448D01*
X-11688Y139456D01*
X-11732Y139463D01*
X-11787Y139467D01*
X-11852Y139474D01*
X-11929D01*
X-13665D01*
Y139809D01*
X-11947D01*
X-11943D01*
X-11932D01*
X-11918D01*
X-11896D01*
X-11867Y139805D01*
D02*
G37*
G36*
X-136645Y11681D02*
Y11677D01*
Y11666D01*
Y11652D01*
Y11630D01*
X-136648Y11601D01*
Y11572D01*
X-136656Y11503D01*
X-136663Y11423D01*
X-136678Y11339D01*
X-136699Y11262D01*
X-136725Y11190D01*
Y11186D01*
X-136728Y11182D01*
X-136739Y11161D01*
X-136758Y11131D01*
X-136783Y11091D01*
X-136819Y11051D01*
X-136860Y11008D01*
X-136910Y10964D01*
X-136969Y10927D01*
X-136976Y10924D01*
X-136998Y10913D01*
X-137030Y10898D01*
X-137078Y10884D01*
X-137136Y10866D01*
X-137202Y10851D01*
X-137274Y10840D01*
X-137355Y10836D01*
X-137387D01*
X-137409Y10840D01*
X-137438Y10844D01*
X-137467Y10847D01*
X-137544Y10862D01*
X-137624Y10884D01*
X-137708Y10917D01*
X-137751Y10938D01*
X-137791Y10964D01*
X-137828Y10993D01*
X-137864Y11026D01*
X-137868Y11029D01*
X-137871Y11033D01*
X-137879Y11048D01*
X-137890Y11062D01*
X-137904Y11080D01*
X-137919Y11106D01*
X-137933Y11135D01*
X-137952Y11168D01*
X-137966Y11204D01*
X-137981Y11248D01*
X-137995Y11292D01*
X-138010Y11343D01*
X-138017Y11397D01*
X-138028Y11459D01*
X-138031Y11521D01*
Y11590D01*
X-137729Y11634D01*
Y11630D01*
Y11623D01*
Y11608D01*
X-137726Y11586D01*
X-137722Y11564D01*
Y11539D01*
X-137711Y11477D01*
X-137700Y11412D01*
X-137679Y11346D01*
X-137657Y11288D01*
X-137642Y11262D01*
X-137624Y11241D01*
X-137620Y11237D01*
X-137606Y11226D01*
X-137584Y11208D01*
X-137555Y11190D01*
X-137515Y11168D01*
X-137471Y11153D01*
X-137416Y11139D01*
X-137358Y11135D01*
X-137336D01*
X-137314Y11139D01*
X-137282Y11142D01*
X-137249Y11150D01*
X-137213Y11157D01*
X-137176Y11171D01*
X-137140Y11190D01*
X-137136Y11193D01*
X-137125Y11201D01*
X-137111Y11215D01*
X-137089Y11230D01*
X-137071Y11255D01*
X-137049Y11281D01*
X-137030Y11310D01*
X-137016Y11346D01*
Y11350D01*
X-137009Y11364D01*
X-137005Y11390D01*
X-136998Y11423D01*
X-136990Y11466D01*
X-136987Y11521D01*
X-136980Y11586D01*
Y11663D01*
Y13399D01*
X-136645D01*
Y11681D01*
D02*
G37*
G36*
X-135061Y10880D02*
X-135371D01*
Y12849D01*
X-135374Y12846D01*
X-135393Y12831D01*
X-135414Y12809D01*
X-135451Y12784D01*
X-135491Y12751D01*
X-135542Y12715D01*
X-135600Y12675D01*
X-135666Y12635D01*
X-135669D01*
X-135673Y12631D01*
X-135695Y12617D01*
X-135731Y12598D01*
X-135775Y12576D01*
X-135826Y12551D01*
X-135880Y12526D01*
X-135935Y12500D01*
X-135989Y12478D01*
Y12777D01*
X-135986D01*
X-135979Y12784D01*
X-135964Y12788D01*
X-135946Y12799D01*
X-135924Y12809D01*
X-135898Y12824D01*
X-135837Y12860D01*
X-135764Y12900D01*
X-135691Y12951D01*
X-135615Y13010D01*
X-135538Y13071D01*
X-135535Y13075D01*
X-135531Y13079D01*
X-135520Y13090D01*
X-135505Y13101D01*
X-135473Y13137D01*
X-135429Y13181D01*
X-135385Y13232D01*
X-135338Y13290D01*
X-135298Y13348D01*
X-135261Y13410D01*
X-135061D01*
Y10880D01*
D02*
G37*
D11*
X-17992Y124249D02*
Y152595D01*
X-4213D01*
Y124249D02*
Y152595D01*
X-17992Y124249D02*
X-4213D01*
X-152205Y17726D02*
X-123858D01*
Y3947D02*
Y17726D01*
X-152205Y3947D02*
X-123858D01*
X-152205D02*
Y17726D01*
D37*
X-160783Y34567D02*
X-155468D01*
X-160783Y43228D02*
X-155468D01*
X-160783Y34567D02*
Y43228D01*
X-155468Y34567D02*
Y43228D01*
X-137720Y34173D02*
Y42834D01*
X-132208Y34173D02*
Y42834D01*
X-137720Y34173D02*
X-132208Y34173D01*
X-137720Y42834D02*
X-132208Y42834D01*
X-125373Y34044D02*
X-125373Y42705D01*
X-119861Y34044D02*
X-119861Y42705D01*
X-125373Y34044D02*
X-119861Y34044D01*
X-125373Y42705D02*
X-119861Y42705D01*
X-144165Y34370D02*
X-144164Y43031D01*
X-149676Y34370D02*
X-149676Y43031D01*
X-149676Y34370D02*
X-144165Y34370D01*
X-149676Y43031D02*
X-144164Y43031D01*
M02*
