G04*
G04 #@! TF.GenerationSoftware,Altium Limited,Altium Designer,24.1.2 (44)*
G04*
G04 Layer_Color=32896*
%FSLAX25Y25*%
%MOIN*%
G70*
G04*
G04 #@! TF.SameCoordinates,00511CFA-0F04-46CA-AFF9-E4457DF0149F*
G04*
G04*
G04 #@! TF.FilePolarity,Positive*
G04*
G01*
G75*
%ADD35C,0.00600*%
G36*
X-161860Y30882D02*
X-161750Y30873D01*
X-161645Y30858D01*
X-161546Y30844D01*
X-161453Y30824D01*
X-161371Y30806D01*
X-161295Y30788D01*
X-161224Y30765D01*
X-161159Y30749D01*
X-161099Y30732D01*
X-161051Y30711D01*
X-161007Y30696D01*
X-160975Y30682D01*
X-160949Y30669D01*
X-160927Y30661D01*
X-160916Y30655D01*
X-160911Y30654D01*
X-160794Y30583D01*
X-160691Y30496D01*
X-160609Y30411D01*
X-160539Y30321D01*
X-160484Y30244D01*
X-160445Y30179D01*
X-160436Y30156D01*
X-160427Y30138D01*
X-160417Y30126D01*
X-160417Y30121D01*
X-160368Y29977D01*
X-160337Y29830D01*
X-160317Y29678D01*
X-160307Y29537D01*
X-160306Y29476D01*
X-160306Y29415D01*
X-160305Y29359D01*
X-160309Y29315D01*
X-160307Y29276D01*
X-160311Y29226D01*
X-160340Y29028D01*
X-160359Y28940D01*
X-160377Y28858D01*
X-160401Y28777D01*
X-160424Y28706D01*
X-160446Y28642D01*
X-160474Y28583D01*
X-160501Y28529D01*
X-160521Y28486D01*
X-160541Y28444D01*
X-160561Y28412D01*
X-160580Y28386D01*
X-160587Y28370D01*
X-160599Y28360D01*
X-160600Y28354D01*
X-160693Y28240D01*
X-160796Y28148D01*
X-160891Y28079D01*
X-160985Y28020D01*
X-161067Y27977D01*
X-161131Y27949D01*
X-161154Y27940D01*
X-161171Y27931D01*
X-161183Y27926D01*
X-161188Y27926D01*
X-161257Y27910D01*
X-161330Y27894D01*
X-161483Y27874D01*
X-161639Y27866D01*
X-161790Y27862D01*
X-161857Y27862D01*
X-161924Y27863D01*
X-161979Y27867D01*
X-162029Y27866D01*
X-162068Y27870D01*
X-162096Y27872D01*
X-162118Y27874D01*
X-162123Y27874D01*
X-164335Y28068D01*
X-164290Y28577D01*
X-162079Y28383D01*
X-161952Y28372D01*
X-161829Y28372D01*
X-161723Y28374D01*
X-161622Y28382D01*
X-161532Y28391D01*
X-161447Y28406D01*
X-161374Y28416D01*
X-161311Y28433D01*
X-161259Y28451D01*
X-161208Y28469D01*
X-161173Y28488D01*
X-161138Y28501D01*
X-161115Y28516D01*
X-161097Y28526D01*
X-161091Y28531D01*
X-161085Y28536D01*
X-161036Y28582D01*
X-160993Y28634D01*
X-160921Y28750D01*
X-160866Y28873D01*
X-160827Y29004D01*
X-160794Y29123D01*
X-160784Y29173D01*
X-160780Y29222D01*
X-160771Y29255D01*
X-160766Y29310D01*
X-160762Y29427D01*
X-160769Y29533D01*
X-160777Y29634D01*
X-160798Y29714D01*
X-160814Y29782D01*
X-160827Y29834D01*
X-160841Y29863D01*
X-160845Y29874D01*
X-160888Y29956D01*
X-160943Y30028D01*
X-160999Y30088D01*
X-161051Y30132D01*
X-161104Y30170D01*
X-161140Y30201D01*
X-161167Y30214D01*
X-161177Y30221D01*
X-161225Y30242D01*
X-161274Y30257D01*
X-161388Y30289D01*
X-161509Y30317D01*
X-161629Y30338D01*
X-161734Y30353D01*
X-161784Y30357D01*
X-161822Y30366D01*
X-161855Y30369D01*
X-161883Y30372D01*
X-161899Y30373D01*
X-161905Y30374D01*
X-164116Y30567D01*
X-164072Y31076D01*
X-161860Y30882D01*
D02*
G37*
G36*
X-163424Y27275D02*
X-163382Y26798D01*
X-163505Y26787D01*
X-163613Y26763D01*
X-163705Y26732D01*
X-163780Y26699D01*
X-163839Y26665D01*
X-163881Y26636D01*
X-163910Y26616D01*
X-163916Y26611D01*
X-163978Y26544D01*
X-164029Y26470D01*
X-164063Y26401D01*
X-164091Y26331D01*
X-164108Y26265D01*
X-164124Y26217D01*
X-164128Y26172D01*
X-164131Y26072D01*
X-164116Y25982D01*
X-164095Y25902D01*
X-164074Y25833D01*
X-164045Y25781D01*
X-164021Y25740D01*
X-164001Y25710D01*
X-163996Y25704D01*
X-163935Y25637D01*
X-163867Y25587D01*
X-163797Y25553D01*
X-163733Y25525D01*
X-163673Y25509D01*
X-163630Y25494D01*
X-163597Y25491D01*
X-163591Y25490D01*
X-163585Y25490D01*
X-163525Y25484D01*
X-163468Y25491D01*
X-163372Y25510D01*
X-163286Y25542D01*
X-163210Y25580D01*
X-163156Y25619D01*
X-163114Y25655D01*
X-163090Y25681D01*
X-163084Y25686D01*
X-163083Y25691D01*
X-163025Y25781D01*
X-162979Y25866D01*
X-162943Y25957D01*
X-162919Y26039D01*
X-162902Y26110D01*
X-162885Y26170D01*
X-162879Y26241D01*
X-162883Y26264D01*
X-162880Y26292D01*
X-162461Y26311D01*
X-162484Y26240D01*
X-162501Y26175D01*
X-162516Y26121D01*
X-162526Y26071D01*
X-162535Y26033D01*
X-162540Y25983D01*
X-162539Y25866D01*
X-162526Y25759D01*
X-162501Y25662D01*
X-162469Y25582D01*
X-162435Y25517D01*
X-162406Y25470D01*
X-162386Y25441D01*
X-162376Y25429D01*
X-162300Y25350D01*
X-162216Y25286D01*
X-162131Y25240D01*
X-162045Y25210D01*
X-161974Y25187D01*
X-161914Y25176D01*
X-161892Y25169D01*
X-161875Y25168D01*
X-161864Y25167D01*
X-161859Y25166D01*
X-161736Y25166D01*
X-161623Y25185D01*
X-161526Y25209D01*
X-161440Y25246D01*
X-161369Y25285D01*
X-161317Y25314D01*
X-161281Y25338D01*
X-161269Y25348D01*
X-161184Y25430D01*
X-161120Y25519D01*
X-161074Y25610D01*
X-161038Y25696D01*
X-161015Y25772D01*
X-161004Y25832D01*
X-160996Y25854D01*
X-160994Y25887D01*
X-160990Y25987D01*
X-161004Y26083D01*
X-161025Y26168D01*
X-161052Y26238D01*
X-161075Y26295D01*
X-161099Y26342D01*
X-161119Y26366D01*
X-161123Y26377D01*
X-161195Y26451D01*
X-161279Y26514D01*
X-161368Y26572D01*
X-161464Y26619D01*
X-161545Y26654D01*
X-161583Y26668D01*
X-161615Y26677D01*
X-161643Y26685D01*
X-161664Y26692D01*
X-161675Y26699D01*
X-161680Y26699D01*
X-161578Y27164D01*
X-161491Y27145D01*
X-161409Y27121D01*
X-161259Y27058D01*
X-161132Y26985D01*
X-161079Y26948D01*
X-161027Y26910D01*
X-160980Y26872D01*
X-160944Y26835D01*
X-160908Y26804D01*
X-160882Y26774D01*
X-160862Y26756D01*
X-160847Y26738D01*
X-160837Y26726D01*
X-160832Y26720D01*
X-160788Y26649D01*
X-160744Y26578D01*
X-160711Y26509D01*
X-160684Y26434D01*
X-160641Y26291D01*
X-160619Y26155D01*
X-160613Y26093D01*
X-160607Y26037D01*
X-160606Y25987D01*
X-160604Y25942D01*
X-160602Y25908D01*
X-160606Y25859D01*
X-160621Y25754D01*
X-160640Y25661D01*
X-160665Y25569D01*
X-160695Y25482D01*
X-160730Y25402D01*
X-160764Y25332D01*
X-160803Y25263D01*
X-160842Y25205D01*
X-160874Y25147D01*
X-160912Y25100D01*
X-160943Y25058D01*
X-160974Y25027D01*
X-160999Y25002D01*
X-161017Y24981D01*
X-161029Y24971D01*
X-161035Y24966D01*
X-161107Y24905D01*
X-161184Y24856D01*
X-161260Y24813D01*
X-161336Y24775D01*
X-161405Y24748D01*
X-161480Y24721D01*
X-161617Y24688D01*
X-161678Y24682D01*
X-161735Y24676D01*
X-161785Y24669D01*
X-161830Y24668D01*
X-161864Y24665D01*
X-161891Y24667D01*
X-161908Y24669D01*
X-161914Y24669D01*
X-162046Y24687D01*
X-162165Y24719D01*
X-162268Y24762D01*
X-162353Y24803D01*
X-162422Y24842D01*
X-162475Y24880D01*
X-162506Y24905D01*
X-162516Y24912D01*
X-162592Y24996D01*
X-162657Y25085D01*
X-162705Y25179D01*
X-162741Y25271D01*
X-162768Y25351D01*
X-162784Y25414D01*
X-162788Y25437D01*
X-162792Y25454D01*
X-162796Y25465D01*
X-162796Y25471D01*
X-162854Y25381D01*
X-162911Y25308D01*
X-162972Y25247D01*
X-163026Y25196D01*
X-163074Y25155D01*
X-163116Y25126D01*
X-163139Y25111D01*
X-163151Y25106D01*
X-163232Y25069D01*
X-163313Y25043D01*
X-163392Y25022D01*
X-163466Y25011D01*
X-163528Y25006D01*
X-163572Y25004D01*
X-163605Y25007D01*
X-163617Y25008D01*
X-163710Y25022D01*
X-163803Y25046D01*
X-163884Y25076D01*
X-163953Y25110D01*
X-164011Y25143D01*
X-164059Y25169D01*
X-164085Y25188D01*
X-164096Y25195D01*
X-164174Y25257D01*
X-164240Y25330D01*
X-164295Y25401D01*
X-164345Y25473D01*
X-164379Y25531D01*
X-164407Y25584D01*
X-164421Y25619D01*
X-164426Y25625D01*
X-164426Y25630D01*
X-164461Y25734D01*
X-164486Y25836D01*
X-164505Y25938D01*
X-164513Y26028D01*
X-164518Y26101D01*
X-164518Y26162D01*
X-164506Y26300D01*
X-164488Y26377D01*
X-164448Y26524D01*
X-164392Y26647D01*
X-164339Y26754D01*
X-164306Y26801D01*
X-164281Y26838D01*
X-164255Y26874D01*
X-164231Y26900D01*
X-164212Y26921D01*
X-164200Y26936D01*
X-164193Y26947D01*
X-164187Y26952D01*
X-164073Y27048D01*
X-163950Y27121D01*
X-163822Y27176D01*
X-163696Y27221D01*
X-163588Y27245D01*
X-163542Y27258D01*
X-163503Y27265D01*
X-163469Y27268D01*
X-163446Y27272D01*
X-163429Y27276D01*
X-163424Y27275D01*
D02*
G37*
G36*
X-50888Y158931D02*
X-50783Y158920D01*
X-50683Y158909D01*
X-50588Y158886D01*
X-50499Y158859D01*
X-50416Y158831D01*
X-50339Y158803D01*
X-50266Y158770D01*
X-50205Y158742D01*
X-50144Y158714D01*
X-50100Y158687D01*
X-50055Y158659D01*
X-50028Y158637D01*
X-50000Y158625D01*
X-49989Y158614D01*
X-49983Y158609D01*
X-49906Y158542D01*
X-49839Y158476D01*
X-49778Y158398D01*
X-49717Y158320D01*
X-49617Y158165D01*
X-49539Y158010D01*
X-49506Y157937D01*
X-49478Y157871D01*
X-49456Y157810D01*
X-49439Y157760D01*
X-49423Y157715D01*
X-49412Y157682D01*
X-49406Y157660D01*
Y157654D01*
X-49917Y157527D01*
X-49939Y157615D01*
X-49967Y157699D01*
X-49995Y157776D01*
X-50022Y157849D01*
X-50055Y157915D01*
X-50089Y157971D01*
X-50128Y158026D01*
X-50161Y158076D01*
X-50189Y158121D01*
X-50222Y158154D01*
X-50250Y158187D01*
X-50272Y158215D01*
X-50294Y158231D01*
X-50311Y158248D01*
X-50316Y158254D01*
X-50322Y158259D01*
X-50377Y158304D01*
X-50438Y158337D01*
X-50561Y158398D01*
X-50677Y158442D01*
X-50794Y158470D01*
X-50893Y158492D01*
X-50932Y158498D01*
X-50971D01*
X-51005Y158503D01*
X-51043D01*
X-51171Y158498D01*
X-51293Y158476D01*
X-51404Y158448D01*
X-51504Y158415D01*
X-51582Y158381D01*
X-51615Y158365D01*
X-51643Y158354D01*
X-51665Y158343D01*
X-51682Y158331D01*
X-51693Y158326D01*
X-51698D01*
X-51804Y158248D01*
X-51893Y158165D01*
X-51970Y158071D01*
X-52031Y157982D01*
X-52081Y157904D01*
X-52114Y157837D01*
X-52126Y157810D01*
X-52137Y157793D01*
X-52142Y157782D01*
Y157776D01*
X-52187Y157632D01*
X-52220Y157488D01*
X-52248Y157343D01*
X-52264Y157210D01*
X-52270Y157149D01*
X-52276Y157094D01*
Y157044D01*
X-52281Y157005D01*
Y156972D01*
Y156944D01*
Y156927D01*
Y156922D01*
X-52276Y156777D01*
X-52264Y156644D01*
X-52242Y156522D01*
X-52220Y156411D01*
X-52203Y156317D01*
X-52192Y156278D01*
X-52181Y156245D01*
X-52176Y156217D01*
X-52170Y156200D01*
X-52165Y156189D01*
Y156184D01*
X-52109Y156056D01*
X-52048Y155939D01*
X-51981Y155845D01*
X-51909Y155762D01*
X-51848Y155695D01*
X-51798Y155651D01*
X-51759Y155623D01*
X-51754Y155612D01*
X-51748D01*
X-51632Y155540D01*
X-51504Y155484D01*
X-51382Y155445D01*
X-51265Y155423D01*
X-51160Y155406D01*
X-51116Y155401D01*
X-51077D01*
X-51049Y155395D01*
X-51005D01*
X-50866Y155401D01*
X-50738Y155423D01*
X-50633Y155456D01*
X-50538Y155490D01*
X-50466Y155529D01*
X-50411Y155556D01*
X-50377Y155579D01*
X-50366Y155590D01*
X-50278Y155673D01*
X-50194Y155767D01*
X-50128Y155867D01*
X-50072Y155967D01*
X-50028Y156056D01*
X-50011Y156100D01*
X-50000Y156134D01*
X-49989Y156161D01*
X-49978Y156184D01*
X-49972Y156195D01*
Y156200D01*
X-49473Y156084D01*
X-49506Y155984D01*
X-49539Y155895D01*
X-49584Y155812D01*
X-49623Y155728D01*
X-49667Y155656D01*
X-49717Y155590D01*
X-49761Y155523D01*
X-49806Y155468D01*
X-49850Y155423D01*
X-49889Y155379D01*
X-49928Y155340D01*
X-49956Y155312D01*
X-49983Y155284D01*
X-50006Y155268D01*
X-50017Y155262D01*
X-50022Y155257D01*
X-50100Y155207D01*
X-50178Y155157D01*
X-50255Y155118D01*
X-50339Y155085D01*
X-50505Y155035D01*
X-50655Y155001D01*
X-50727Y154985D01*
X-50788Y154979D01*
X-50849Y154974D01*
X-50899Y154968D01*
X-50938Y154963D01*
X-50994D01*
X-51177Y154974D01*
X-51354Y155001D01*
X-51510Y155035D01*
X-51582Y155057D01*
X-51648Y155079D01*
X-51709Y155101D01*
X-51765Y155123D01*
X-51809Y155140D01*
X-51854Y155157D01*
X-51881Y155173D01*
X-51904Y155184D01*
X-51920Y155190D01*
X-51926Y155196D01*
X-52076Y155290D01*
X-52203Y155401D01*
X-52314Y155512D01*
X-52409Y155623D01*
X-52481Y155723D01*
X-52509Y155767D01*
X-52531Y155806D01*
X-52553Y155834D01*
X-52564Y155856D01*
X-52570Y155873D01*
X-52575Y155878D01*
X-52653Y156050D01*
X-52708Y156228D01*
X-52747Y156405D01*
X-52775Y156567D01*
X-52786Y156639D01*
X-52792Y156711D01*
X-52797Y156766D01*
Y156822D01*
X-52803Y156861D01*
Y156894D01*
Y156916D01*
Y156922D01*
X-52792Y157122D01*
X-52769Y157316D01*
X-52742Y157488D01*
X-52719Y157571D01*
X-52703Y157643D01*
X-52686Y157710D01*
X-52664Y157771D01*
X-52647Y157826D01*
X-52636Y157871D01*
X-52620Y157904D01*
X-52614Y157932D01*
X-52603Y157948D01*
Y157954D01*
X-52520Y158121D01*
X-52425Y158270D01*
X-52325Y158398D01*
X-52276Y158448D01*
X-52231Y158498D01*
X-52187Y158542D01*
X-52142Y158581D01*
X-52103Y158614D01*
X-52070Y158637D01*
X-52048Y158659D01*
X-52026Y158676D01*
X-52015Y158681D01*
X-52009Y158687D01*
X-51931Y158731D01*
X-51854Y158770D01*
X-51687Y158831D01*
X-51521Y158875D01*
X-51360Y158903D01*
X-51282Y158914D01*
X-51215Y158925D01*
X-51154Y158931D01*
X-51104D01*
X-51060Y158936D01*
X-50999D01*
X-50888Y158931D01*
D02*
G37*
G36*
X-47197Y155013D02*
X-47502D01*
X-47558Y155107D01*
X-47619Y155196D01*
X-47691Y155284D01*
X-47758Y155362D01*
X-47824Y155429D01*
X-47874Y155484D01*
X-47897Y155501D01*
X-47913Y155517D01*
X-47919Y155523D01*
X-47924Y155529D01*
X-48041Y155623D01*
X-48157Y155712D01*
X-48268Y155789D01*
X-48379Y155851D01*
X-48474Y155906D01*
X-48513Y155928D01*
X-48546Y155945D01*
X-48574Y155962D01*
X-48596Y155967D01*
X-48607Y155978D01*
X-48612D01*
Y156433D01*
X-48529Y156400D01*
X-48446Y156361D01*
X-48363Y156322D01*
X-48285Y156283D01*
X-48219Y156250D01*
X-48163Y156222D01*
X-48130Y156200D01*
X-48124Y156195D01*
X-48118D01*
X-48019Y156134D01*
X-47930Y156072D01*
X-47852Y156017D01*
X-47791Y155967D01*
X-47736Y155928D01*
X-47702Y155895D01*
X-47675Y155873D01*
X-47669Y155867D01*
Y158870D01*
X-47197D01*
Y155013D01*
D02*
G37*
G36*
X-103704Y112348D02*
X-103599Y112337D01*
X-103499Y112321D01*
X-103402Y112301D01*
X-103313Y112276D01*
X-103230Y112249D01*
X-103153Y112218D01*
X-103083Y112188D01*
X-103020Y112157D01*
X-102964Y112127D01*
X-102914Y112099D01*
X-102876Y112074D01*
X-102842Y112055D01*
X-102820Y112038D01*
X-102806Y112027D01*
X-102801Y112024D01*
X-102726Y111958D01*
X-102657Y111889D01*
X-102593Y111814D01*
X-102535Y111736D01*
X-102482Y111656D01*
X-102435Y111578D01*
X-102394Y111501D01*
X-102358Y111423D01*
X-102324Y111351D01*
X-102297Y111285D01*
X-102275Y111227D01*
X-102255Y111174D01*
X-102241Y111133D01*
X-102236Y111113D01*
X-102233Y111099D01*
X-102230Y111088D01*
X-102227Y111080D01*
X-102225Y111074D01*
Y111072D01*
X-102732Y110944D01*
X-102754Y111033D01*
X-102779Y111113D01*
X-102806Y111191D01*
X-102840Y111260D01*
X-102870Y111326D01*
X-102906Y111387D01*
X-102939Y111440D01*
X-102972Y111490D01*
X-103003Y111531D01*
X-103033Y111570D01*
X-103061Y111601D01*
X-103086Y111626D01*
X-103105Y111648D01*
X-103119Y111662D01*
X-103130Y111670D01*
X-103133Y111673D01*
X-103191Y111714D01*
X-103250Y111753D01*
X-103311Y111786D01*
X-103371Y111814D01*
X-103432Y111836D01*
X-103493Y111855D01*
X-103551Y111872D01*
X-103607Y111886D01*
X-103657Y111897D01*
X-103707Y111902D01*
X-103748Y111908D01*
X-103784Y111914D01*
X-103815D01*
X-103837Y111916D01*
X-103856D01*
X-103920Y111914D01*
X-103984Y111908D01*
X-104044Y111900D01*
X-104105Y111889D01*
X-104161Y111875D01*
X-104216Y111858D01*
X-104266Y111844D01*
X-104313Y111825D01*
X-104355Y111808D01*
X-104393Y111794D01*
X-104427Y111778D01*
X-104455Y111764D01*
X-104477Y111753D01*
X-104493Y111745D01*
X-104504Y111739D01*
X-104507Y111736D01*
X-104562Y111700D01*
X-104612Y111662D01*
X-104659Y111620D01*
X-104704Y111576D01*
X-104743Y111531D01*
X-104779Y111484D01*
X-104812Y111440D01*
X-104842Y111398D01*
X-104867Y111357D01*
X-104889Y111318D01*
X-104909Y111282D01*
X-104923Y111252D01*
X-104937Y111227D01*
X-104945Y111210D01*
X-104947Y111196D01*
X-104950Y111193D01*
X-104975Y111124D01*
X-104997Y111052D01*
X-105017Y110980D01*
X-105031Y110905D01*
X-105058Y110764D01*
X-105067Y110695D01*
X-105075Y110628D01*
X-105080Y110570D01*
X-105083Y110515D01*
X-105086Y110465D01*
X-105089Y110423D01*
X-105092Y110387D01*
Y110362D01*
Y110346D01*
Y110340D01*
X-105089Y110268D01*
X-105086Y110199D01*
X-105072Y110066D01*
X-105064Y110002D01*
X-105053Y109941D01*
X-105042Y109883D01*
X-105031Y109831D01*
X-105020Y109781D01*
X-105011Y109736D01*
X-105000Y109698D01*
X-104992Y109664D01*
X-104983Y109640D01*
X-104978Y109620D01*
X-104973Y109606D01*
Y109603D01*
X-104947Y109537D01*
X-104920Y109476D01*
X-104889Y109418D01*
X-104856Y109365D01*
X-104823Y109313D01*
X-104790Y109265D01*
X-104754Y109224D01*
X-104720Y109185D01*
X-104687Y109152D01*
X-104657Y109122D01*
X-104629Y109097D01*
X-104604Y109074D01*
X-104585Y109058D01*
X-104571Y109044D01*
X-104560Y109038D01*
X-104557Y109036D01*
X-104499Y108997D01*
X-104438Y108966D01*
X-104377Y108936D01*
X-104316Y108911D01*
X-104252Y108892D01*
X-104191Y108875D01*
X-104133Y108861D01*
X-104075Y108850D01*
X-104022Y108839D01*
X-103972Y108833D01*
X-103928Y108828D01*
X-103889Y108825D01*
X-103859Y108822D01*
X-103817D01*
X-103745Y108825D01*
X-103679Y108831D01*
X-103615Y108839D01*
X-103554Y108853D01*
X-103499Y108867D01*
X-103446Y108883D01*
X-103399Y108900D01*
X-103355Y108916D01*
X-103316Y108936D01*
X-103280Y108952D01*
X-103250Y108969D01*
X-103225Y108983D01*
X-103205Y108997D01*
X-103191Y109005D01*
X-103183Y109011D01*
X-103180Y109013D01*
X-103133Y109052D01*
X-103089Y109094D01*
X-103050Y109141D01*
X-103011Y109188D01*
X-102975Y109241D01*
X-102945Y109290D01*
X-102914Y109340D01*
X-102889Y109390D01*
X-102867Y109437D01*
X-102845Y109482D01*
X-102829Y109520D01*
X-102815Y109554D01*
X-102804Y109584D01*
X-102795Y109603D01*
X-102793Y109617D01*
X-102790Y109623D01*
X-102291Y109506D01*
X-102322Y109409D01*
X-102360Y109318D01*
X-102399Y109232D01*
X-102444Y109152D01*
X-102488Y109080D01*
X-102532Y109011D01*
X-102579Y108950D01*
X-102623Y108894D01*
X-102668Y108844D01*
X-102707Y108803D01*
X-102743Y108764D01*
X-102776Y108736D01*
X-102801Y108712D01*
X-102823Y108695D01*
X-102834Y108684D01*
X-102840Y108681D01*
X-102914Y108628D01*
X-102992Y108584D01*
X-103075Y108545D01*
X-103155Y108512D01*
X-103236Y108482D01*
X-103316Y108459D01*
X-103394Y108440D01*
X-103468Y108423D01*
X-103540Y108412D01*
X-103604Y108404D01*
X-103659Y108396D01*
X-103709Y108393D01*
X-103751Y108390D01*
X-103768Y108387D01*
X-103806D01*
X-103901Y108390D01*
X-103992Y108398D01*
X-104080Y108410D01*
X-104166Y108423D01*
X-104247Y108440D01*
X-104324Y108462D01*
X-104396Y108482D01*
X-104463Y108504D01*
X-104521Y108526D01*
X-104576Y108545D01*
X-104623Y108565D01*
X-104662Y108584D01*
X-104695Y108598D01*
X-104718Y108609D01*
X-104732Y108617D01*
X-104737Y108620D01*
X-104815Y108667D01*
X-104887Y108717D01*
X-104953Y108770D01*
X-105017Y108825D01*
X-105075Y108880D01*
X-105128Y108936D01*
X-105177Y108994D01*
X-105219Y109047D01*
X-105258Y109097D01*
X-105294Y109146D01*
X-105322Y109188D01*
X-105346Y109224D01*
X-105363Y109257D01*
X-105377Y109279D01*
X-105385Y109293D01*
X-105388Y109299D01*
X-105427Y109385D01*
X-105463Y109470D01*
X-105493Y109559D01*
X-105518Y109648D01*
X-105540Y109736D01*
X-105560Y109825D01*
X-105574Y109908D01*
X-105587Y109986D01*
X-105596Y110061D01*
X-105604Y110130D01*
X-105607Y110191D01*
X-105612Y110243D01*
Y110285D01*
X-105615Y110301D01*
Y110315D01*
Y110326D01*
Y110335D01*
Y110340D01*
Y110343D01*
X-105612Y110445D01*
X-105607Y110545D01*
X-105596Y110642D01*
X-105585Y110734D01*
X-105568Y110825D01*
X-105551Y110908D01*
X-105532Y110988D01*
X-105513Y111063D01*
X-105496Y111130D01*
X-105477Y111191D01*
X-105460Y111243D01*
X-105443Y111288D01*
X-105432Y111324D01*
X-105421Y111348D01*
X-105416Y111365D01*
X-105413Y111368D01*
Y111371D01*
X-105374Y111457D01*
X-105330Y111540D01*
X-105283Y111615D01*
X-105236Y111687D01*
X-105186Y111750D01*
X-105136Y111811D01*
X-105089Y111864D01*
X-105042Y111914D01*
X-104997Y111958D01*
X-104956Y111994D01*
X-104920Y112027D01*
X-104887Y112052D01*
X-104859Y112072D01*
X-104840Y112088D01*
X-104828Y112096D01*
X-104823Y112099D01*
X-104748Y112144D01*
X-104668Y112182D01*
X-104585Y112216D01*
X-104502Y112246D01*
X-104419Y112268D01*
X-104333Y112290D01*
X-104252Y112307D01*
X-104172Y112321D01*
X-104100Y112329D01*
X-104031Y112337D01*
X-103970Y112343D01*
X-103917Y112348D01*
X-103876D01*
X-103856Y112351D01*
X-103815D01*
X-103704Y112348D01*
D02*
G37*
G36*
X-99319Y111836D02*
X-101197D01*
X-101166Y111789D01*
X-101133Y111742D01*
X-101100Y111700D01*
X-101069Y111662D01*
X-101042Y111631D01*
X-101020Y111606D01*
X-101006Y111590D01*
X-101000Y111584D01*
X-100975Y111556D01*
X-100942Y111526D01*
X-100906Y111493D01*
X-100865Y111454D01*
X-100820Y111415D01*
X-100776Y111373D01*
X-100682Y111293D01*
X-100637Y111254D01*
X-100596Y111218D01*
X-100560Y111185D01*
X-100524Y111157D01*
X-100496Y111133D01*
X-100477Y111116D01*
X-100463Y111102D01*
X-100457Y111099D01*
X-100366Y111022D01*
X-100280Y110947D01*
X-100203Y110878D01*
X-100130Y110814D01*
X-100064Y110753D01*
X-100006Y110698D01*
X-99950Y110648D01*
X-99903Y110603D01*
X-99862Y110562D01*
X-99829Y110526D01*
X-99798Y110495D01*
X-99773Y110470D01*
X-99754Y110451D01*
X-99743Y110437D01*
X-99734Y110429D01*
X-99732Y110426D01*
X-99693Y110379D01*
X-99654Y110335D01*
X-99621Y110290D01*
X-99590Y110249D01*
X-99535Y110169D01*
X-99513Y110133D01*
X-99493Y110099D01*
X-99474Y110069D01*
X-99460Y110041D01*
X-99446Y110016D01*
X-99438Y109997D01*
X-99430Y109980D01*
X-99424Y109969D01*
X-99419Y109961D01*
Y109958D01*
X-99388Y109875D01*
X-99363Y109795D01*
X-99347Y109717D01*
X-99335Y109648D01*
X-99333Y109617D01*
X-99330Y109590D01*
X-99327Y109567D01*
X-99324Y109545D01*
Y109529D01*
Y109518D01*
Y109509D01*
Y109506D01*
X-99327Y109423D01*
X-99338Y109343D01*
X-99355Y109268D01*
X-99374Y109196D01*
X-99399Y109130D01*
X-99427Y109066D01*
X-99457Y109008D01*
X-99485Y108955D01*
X-99516Y108908D01*
X-99546Y108867D01*
X-99574Y108831D01*
X-99599Y108803D01*
X-99618Y108778D01*
X-99635Y108761D01*
X-99646Y108750D01*
X-99648Y108747D01*
X-99712Y108692D01*
X-99779Y108645D01*
X-99848Y108606D01*
X-99920Y108570D01*
X-99992Y108540D01*
X-100067Y108515D01*
X-100136Y108495D01*
X-100205Y108479D01*
X-100269Y108465D01*
X-100330Y108457D01*
X-100383Y108448D01*
X-100430Y108446D01*
X-100468Y108443D01*
X-100496Y108440D01*
X-100521D01*
X-100621Y108443D01*
X-100715Y108451D01*
X-100804Y108465D01*
X-100887Y108484D01*
X-100964Y108507D01*
X-101036Y108531D01*
X-101100Y108556D01*
X-101161Y108581D01*
X-101214Y108609D01*
X-101261Y108634D01*
X-101300Y108659D01*
X-101333Y108681D01*
X-101358Y108698D01*
X-101377Y108714D01*
X-101388Y108723D01*
X-101391Y108725D01*
X-101449Y108781D01*
X-101499Y108842D01*
X-101546Y108905D01*
X-101585Y108972D01*
X-101621Y109041D01*
X-101651Y109110D01*
X-101676Y109177D01*
X-101698Y109243D01*
X-101715Y109304D01*
X-101729Y109362D01*
X-101740Y109415D01*
X-101748Y109459D01*
X-101757Y109495D01*
X-101759Y109523D01*
Y109534D01*
X-101762Y109543D01*
Y109545D01*
Y109548D01*
X-101277Y109598D01*
X-101275Y109531D01*
X-101269Y109470D01*
X-101258Y109412D01*
X-101247Y109357D01*
X-101230Y109307D01*
X-101214Y109263D01*
X-101194Y109218D01*
X-101175Y109182D01*
X-101158Y109149D01*
X-101139Y109119D01*
X-101122Y109094D01*
X-101106Y109072D01*
X-101094Y109058D01*
X-101083Y109044D01*
X-101078Y109038D01*
X-101075Y109036D01*
X-101036Y109000D01*
X-100992Y108969D01*
X-100948Y108941D01*
X-100903Y108916D01*
X-100856Y108897D01*
X-100812Y108880D01*
X-100768Y108867D01*
X-100726Y108855D01*
X-100684Y108847D01*
X-100648Y108842D01*
X-100615Y108836D01*
X-100585Y108833D01*
X-100563Y108831D01*
X-100529D01*
X-100471Y108833D01*
X-100416Y108839D01*
X-100363Y108847D01*
X-100313Y108861D01*
X-100269Y108875D01*
X-100225Y108892D01*
X-100186Y108908D01*
X-100150Y108928D01*
X-100119Y108944D01*
X-100092Y108964D01*
X-100067Y108980D01*
X-100047Y108994D01*
X-100031Y109008D01*
X-100020Y109016D01*
X-100014Y109022D01*
X-100011Y109025D01*
X-99975Y109061D01*
X-99945Y109099D01*
X-99917Y109138D01*
X-99895Y109180D01*
X-99876Y109218D01*
X-99859Y109257D01*
X-99845Y109296D01*
X-99834Y109332D01*
X-99826Y109365D01*
X-99820Y109396D01*
X-99815Y109423D01*
X-99812Y109448D01*
X-99809Y109468D01*
Y109482D01*
Y109493D01*
Y109495D01*
X-99812Y109545D01*
X-99818Y109595D01*
X-99829Y109645D01*
X-99842Y109695D01*
X-99878Y109792D01*
X-99901Y109836D01*
X-99920Y109878D01*
X-99939Y109916D01*
X-99962Y109952D01*
X-99978Y109983D01*
X-99995Y110011D01*
X-100011Y110030D01*
X-100022Y110047D01*
X-100028Y110058D01*
X-100031Y110061D01*
X-100075Y110119D01*
X-100130Y110182D01*
X-100189Y110246D01*
X-100255Y110313D01*
X-100322Y110382D01*
X-100394Y110448D01*
X-100463Y110515D01*
X-100535Y110579D01*
X-100601Y110639D01*
X-100665Y110695D01*
X-100721Y110748D01*
X-100773Y110789D01*
X-100815Y110825D01*
X-100831Y110839D01*
X-100845Y110853D01*
X-100856Y110861D01*
X-100865Y110869D01*
X-100870Y110872D01*
X-100873Y110875D01*
X-100945Y110936D01*
X-101014Y110994D01*
X-101078Y111049D01*
X-101139Y111102D01*
X-101194Y111155D01*
X-101244Y111202D01*
X-101288Y111246D01*
X-101330Y111288D01*
X-101369Y111324D01*
X-101399Y111357D01*
X-101427Y111384D01*
X-101449Y111409D01*
X-101466Y111429D01*
X-101477Y111443D01*
X-101485Y111451D01*
X-101488Y111454D01*
X-101563Y111548D01*
X-101626Y111639D01*
X-101679Y111725D01*
X-101704Y111764D01*
X-101723Y111803D01*
X-101740Y111836D01*
X-101757Y111866D01*
X-101770Y111894D01*
X-101779Y111919D01*
X-101787Y111939D01*
X-101793Y111952D01*
X-101798Y111961D01*
Y111963D01*
X-101817Y112022D01*
X-101831Y112080D01*
X-101840Y112135D01*
X-101845Y112182D01*
X-101848Y112227D01*
X-101851Y112243D01*
Y112260D01*
Y112271D01*
Y112279D01*
Y112285D01*
Y112288D01*
X-99319D01*
Y111836D01*
D02*
G37*
G36*
X-28518Y163102D02*
X-28449Y163019D01*
X-28370Y162937D01*
X-28297Y162865D01*
X-28225Y162805D01*
X-28170Y162754D01*
X-28146Y162739D01*
X-28128Y162724D01*
X-28122Y162719D01*
X-28116Y162714D01*
X-27992Y162630D01*
X-27868Y162552D01*
X-27751Y162484D01*
X-27635Y162433D01*
X-27536Y162386D01*
X-27496Y162367D01*
X-27461Y162354D01*
X-27432Y162339D01*
X-27409Y162336D01*
X-27397Y162326D01*
X-27392Y162326D01*
X-27352Y161873D01*
X-27438Y161899D01*
X-27524Y161930D01*
X-27610Y161962D01*
X-27691Y161994D01*
X-27760Y162021D01*
X-27818Y162044D01*
X-27853Y162063D01*
X-27859Y162068D01*
X-27865Y162067D01*
X-27970Y162119D01*
X-28063Y162173D01*
X-28146Y162221D01*
X-28211Y162266D01*
X-28270Y162299D01*
X-28306Y162330D01*
X-28335Y162349D01*
X-28341Y162354D01*
X-28080Y159363D01*
X-28550Y159322D01*
X-28886Y163165D01*
X-28582Y163191D01*
X-28518Y163102D01*
D02*
G37*
G36*
X-23261Y161412D02*
X-23252Y161301D01*
X-23248Y161196D01*
X-23245Y161095D01*
X-23248Y161001D01*
X-23252Y160917D01*
X-23256Y160838D01*
X-23266Y160765D01*
X-23271Y160698D01*
X-23277Y160636D01*
X-23289Y160585D01*
X-23297Y160539D01*
X-23305Y160505D01*
X-23313Y160477D01*
X-23317Y160454D01*
X-23321Y160443D01*
X-23321Y160437D01*
X-23371Y160310D01*
X-23439Y160193D01*
X-23508Y160098D01*
X-23585Y160013D01*
X-23651Y159946D01*
X-23708Y159896D01*
X-23729Y159883D01*
X-23745Y159871D01*
X-23755Y159859D01*
X-23761Y159858D01*
X-23893Y159785D01*
X-24033Y159729D01*
X-24180Y159682D01*
X-24316Y159648D01*
X-24376Y159637D01*
X-24437Y159626D01*
X-24491Y159616D01*
X-24536Y159612D01*
X-24574Y159603D01*
X-24624Y159599D01*
X-24824Y159592D01*
X-24913Y159596D01*
X-24997Y159600D01*
X-25081Y159609D01*
X-25155Y159619D01*
X-25223Y159630D01*
X-25285Y159647D01*
X-25343Y159664D01*
X-25388Y159677D01*
X-25434Y159689D01*
X-25469Y159703D01*
X-25498Y159717D01*
X-25515Y159721D01*
X-25527Y159731D01*
X-25532Y159731D01*
X-25661Y159803D01*
X-25769Y159889D01*
X-25854Y159970D01*
X-25928Y160053D01*
X-25985Y160126D01*
X-26023Y160184D01*
X-26036Y160205D01*
X-26049Y160221D01*
X-26055Y160231D01*
X-26056Y160237D01*
X-26083Y160301D01*
X-26112Y160371D01*
X-26158Y160518D01*
X-26194Y160670D01*
X-26223Y160818D01*
X-26235Y160884D01*
X-26246Y160950D01*
X-26251Y161005D01*
X-26261Y161055D01*
X-26264Y161093D01*
X-26267Y161121D01*
X-26269Y161143D01*
X-26269Y161149D01*
X-26463Y163360D01*
X-25954Y163405D01*
X-25760Y161193D01*
X-25749Y161066D01*
X-25728Y160945D01*
X-25707Y160841D01*
X-25682Y160743D01*
X-25658Y160656D01*
X-25628Y160575D01*
X-25605Y160505D01*
X-25578Y160446D01*
X-25552Y160398D01*
X-25525Y160350D01*
X-25500Y160319D01*
X-25481Y160287D01*
X-25462Y160266D01*
X-25450Y160251D01*
X-25444Y160246D01*
X-25438Y160241D01*
X-25384Y160201D01*
X-25325Y160167D01*
X-25198Y160117D01*
X-25067Y160084D01*
X-24932Y160068D01*
X-24809Y160056D01*
X-24758Y160055D01*
X-24709Y160059D01*
X-24675Y160057D01*
X-24620Y160062D01*
X-24504Y160077D01*
X-24400Y160103D01*
X-24302Y160128D01*
X-24227Y160163D01*
X-24163Y160191D01*
X-24115Y160212D01*
X-24088Y160231D01*
X-24078Y160237D01*
X-24005Y160294D01*
X-23944Y160360D01*
X-23894Y160426D01*
X-23860Y160485D01*
X-23832Y160543D01*
X-23807Y160584D01*
X-23799Y160612D01*
X-23794Y160624D01*
X-23782Y160675D01*
X-23775Y160726D01*
X-23763Y160844D01*
X-23757Y160967D01*
X-23757Y161090D01*
X-23761Y161195D01*
X-23765Y161245D01*
X-23763Y161284D01*
X-23766Y161317D01*
X-23768Y161345D01*
X-23770Y161362D01*
X-23770Y161367D01*
X-23964Y163579D01*
X-23455Y163623D01*
X-23261Y161412D01*
D02*
G37*
G36*
X-125579Y107999D02*
X-125501Y107988D01*
X-125426Y107968D01*
X-125352Y107945D01*
X-125281Y107917D01*
X-125216Y107888D01*
X-125154Y107856D01*
X-125099Y107825D01*
X-125048Y107794D01*
X-125003Y107764D01*
X-124966Y107739D01*
X-124934Y107719D01*
X-124913Y107702D01*
X-124905Y107694D01*
X-124897Y107690D01*
X-124895Y107688D01*
X-124893Y107686D01*
X-125201Y107308D01*
X-125250Y107353D01*
X-125297Y107392D01*
X-125346Y107425D01*
X-125393Y107457D01*
X-125440Y107480D01*
X-125483Y107500D01*
X-125528Y107518D01*
X-125567Y107529D01*
X-125602Y107541D01*
X-125638Y107549D01*
X-125667Y107555D01*
X-125695Y107559D01*
X-125712Y107561D01*
X-125730Y107562D01*
X-125742D01*
X-125794Y107561D01*
X-125847Y107551D01*
X-125898Y107539D01*
X-125947Y107525D01*
X-125994Y107506D01*
X-126037Y107486D01*
X-126078Y107465D01*
X-126116Y107443D01*
X-126151Y107420D01*
X-126180Y107398D01*
X-126208Y107378D01*
X-126231Y107359D01*
X-126249Y107345D01*
X-126272Y107322D01*
X-126311Y107279D01*
X-126347Y107235D01*
X-126378Y107192D01*
X-126403Y107147D01*
X-126425Y107106D01*
X-126445Y107063D01*
X-126460Y107024D01*
X-126472Y106985D01*
X-126482Y106951D01*
X-126488Y106918D01*
X-126494Y106889D01*
X-126497Y106865D01*
X-126499Y106844D01*
X-126501Y106830D01*
Y106822D01*
Y106818D01*
Y106767D01*
X-126496Y106718D01*
X-126488Y106671D01*
X-126474Y106626D01*
X-126460Y106585D01*
X-126445Y106546D01*
X-126427Y106509D01*
X-126409Y106475D01*
X-126392Y106446D01*
X-126374Y106421D01*
X-126358Y106397D01*
X-126343Y106377D01*
X-126331Y106362D01*
X-126321Y106352D01*
X-126313Y106344D01*
X-126311Y106342D01*
X-126274Y106309D01*
X-126235Y106278D01*
X-126192Y106250D01*
X-126147Y106225D01*
X-126053Y106182D01*
X-126006Y106166D01*
X-125963Y106150D01*
X-125922Y106137D01*
X-125881Y106127D01*
X-125847Y106117D01*
X-125816Y106109D01*
X-125790Y106107D01*
X-125771Y106103D01*
X-125759Y106099D01*
X-125755D01*
X-125683Y106090D01*
X-125599Y106084D01*
X-125512Y106080D01*
X-125418D01*
X-125322Y106078D01*
X-125224Y106082D01*
X-125128Y106084D01*
X-125032Y106090D01*
X-124942Y106094D01*
X-124858Y106099D01*
X-124782Y106101D01*
X-124715Y106109D01*
X-124660Y106113D01*
X-124639Y106115D01*
X-124619D01*
X-124605Y106117D01*
X-124594D01*
X-124588Y106119D01*
X-124584D01*
X-124490Y106127D01*
X-124400Y106135D01*
X-124316Y106140D01*
X-124235Y106146D01*
X-124159Y106148D01*
X-124090Y106150D01*
X-123969D01*
X-123916Y106152D01*
X-123871Y106150D01*
X-123832D01*
X-123799Y106148D01*
X-123773Y106146D01*
X-123755Y106144D01*
X-123740D01*
X-123620Y106131D01*
X-123511Y106111D01*
X-123413Y106088D01*
X-123368Y106078D01*
X-123326Y106064D01*
X-123291Y106052D01*
X-123258Y106043D01*
X-123229Y106033D01*
X-123205Y106021D01*
X-123185Y106013D01*
X-123172Y106007D01*
X-123162Y106005D01*
X-123160Y106003D01*
X-123105Y105976D01*
X-123054Y105945D01*
X-123009Y105911D01*
X-122972Y105882D01*
X-122939Y105853D01*
X-122925Y105843D01*
X-122913Y105831D01*
X-122905Y105823D01*
X-122899Y105817D01*
X-122896Y105813D01*
X-122894Y105812D01*
X-124684Y104021D01*
X-125003Y104341D01*
X-123675Y105668D01*
X-123730Y105680D01*
X-123787Y105690D01*
X-123840Y105696D01*
X-123889Y105702D01*
X-123930Y105704D01*
X-123963Y105706D01*
X-123985Y105708D01*
X-123992D01*
X-124030Y105710D01*
X-124075Y105708D01*
X-124124Y105706D01*
X-124180Y105704D01*
X-124239Y105700D01*
X-124300Y105698D01*
X-124423Y105688D01*
X-124482Y105684D01*
X-124537Y105680D01*
X-124586Y105678D01*
X-124631Y105672D01*
X-124668Y105670D01*
X-124694Y105668D01*
X-124713D01*
X-124719Y105666D01*
X-124838Y105657D01*
X-124952Y105649D01*
X-125056Y105643D01*
X-125152Y105637D01*
X-125242Y105633D01*
X-125322Y105631D01*
X-125397Y105627D01*
X-125461Y105625D01*
X-125520D01*
X-125569Y105627D01*
X-125675D01*
X-125692Y105629D01*
X-125708D01*
X-125769Y105635D01*
X-125828Y105639D01*
X-125882Y105647D01*
X-125933Y105655D01*
X-126029Y105672D01*
X-126070Y105682D01*
X-126108Y105692D01*
X-126143Y105700D01*
X-126172Y105710D01*
X-126200Y105718D01*
X-126219Y105725D01*
X-126237Y105731D01*
X-126249Y105735D01*
X-126259Y105737D01*
X-126260Y105739D01*
X-126341Y105776D01*
X-126415Y105815D01*
X-126482Y105859D01*
X-126539Y105900D01*
X-126562Y105919D01*
X-126584Y105937D01*
X-126601Y105950D01*
X-126619Y105964D01*
X-126631Y105976D01*
X-126638Y105984D01*
X-126644Y105990D01*
X-126646Y105992D01*
X-126703Y106052D01*
X-126752Y106117D01*
X-126793Y106182D01*
X-126830Y106246D01*
X-126860Y106311D01*
X-126885Y106376D01*
X-126905Y106438D01*
X-126923Y106495D01*
X-126934Y106550D01*
X-126942Y106601D01*
X-126948Y106646D01*
X-126950Y106683D01*
X-126954Y106714D01*
Y106738D01*
Y106754D01*
Y106757D01*
X-126948Y106842D01*
X-126934Y106922D01*
X-126913Y106998D01*
X-126887Y107075D01*
X-126858Y107147D01*
X-126823Y107218D01*
X-126787Y107281D01*
X-126750Y107341D01*
X-126715Y107396D01*
X-126678Y107445D01*
X-126646Y107488D01*
X-126615Y107523D01*
X-126590Y107553D01*
X-126572Y107574D01*
X-126554Y107592D01*
X-126482Y107660D01*
X-126409Y107721D01*
X-126337Y107774D01*
X-126264Y107819D01*
X-126194Y107858D01*
X-126125Y107892D01*
X-126063Y107919D01*
X-126002Y107945D01*
X-125945Y107962D01*
X-125894Y107978D01*
X-125849Y107988D01*
X-125810Y107995D01*
X-125781Y108001D01*
X-125755Y108003D01*
X-125742Y108005D01*
X-125738D01*
X-125657Y108007D01*
X-125579Y107999D01*
D02*
G37*
G36*
X-121485Y109508D02*
X-121409Y109427D01*
X-121336Y109351D01*
X-121272Y109274D01*
X-121213Y109204D01*
X-121160Y109135D01*
X-121113Y109073D01*
X-121072Y109012D01*
X-121035Y108955D01*
X-121003Y108904D01*
X-120978Y108859D01*
X-120954Y108820D01*
X-120937Y108787D01*
X-120923Y108761D01*
X-120915Y108742D01*
X-120909Y108732D01*
X-120907Y108726D01*
X-120884Y108659D01*
X-120866Y108595D01*
X-120851Y108528D01*
X-120843Y108466D01*
X-120835Y108403D01*
Y108344D01*
Y108285D01*
X-120837Y108232D01*
X-120843Y108183D01*
X-120847Y108140D01*
X-120853Y108099D01*
X-120859Y108066D01*
X-120864Y108040D01*
X-120870Y108019D01*
X-120874Y108007D01*
Y108003D01*
X-120898Y107933D01*
X-120927Y107864D01*
X-120962Y107794D01*
X-120998Y107727D01*
X-121039Y107662D01*
X-121078Y107600D01*
X-121121Y107541D01*
X-121162Y107484D01*
X-121203Y107435D01*
X-121242Y107388D01*
X-121276Y107347D01*
X-121307Y107312D01*
X-121330Y107284D01*
X-121368Y107247D01*
X-121442Y107177D01*
X-121513Y107114D01*
X-121585Y107057D01*
X-121656Y107006D01*
X-121724Y106961D01*
X-121787Y106922D01*
X-121848Y106889D01*
X-121906Y106857D01*
X-121957Y106834D01*
X-122006Y106812D01*
X-122045Y106797D01*
X-122083Y106783D01*
X-122110Y106775D01*
X-122132Y106769D01*
X-122145Y106763D01*
X-122149D01*
X-122222Y106750D01*
X-122294Y106740D01*
X-122361Y106736D01*
X-122427D01*
X-122492Y106738D01*
X-122551Y106742D01*
X-122606Y106750D01*
X-122659Y106760D01*
X-122707Y106769D01*
X-122749Y106779D01*
X-122784Y106791D01*
X-122817Y106801D01*
X-122841Y106808D01*
X-122860Y106816D01*
X-122870Y106822D01*
X-122874D01*
X-122937Y106853D01*
X-123003Y106889D01*
X-123066Y106928D01*
X-123133Y106971D01*
X-123256Y107063D01*
X-123315Y107110D01*
X-123372Y107155D01*
X-123422Y107198D01*
X-123471Y107239D01*
X-123512Y107277D01*
X-123548Y107312D01*
X-123577Y107337D01*
X-123589Y107349D01*
X-123599Y107359D01*
X-123607Y107367D01*
X-123612Y107372D01*
X-123614Y107375D01*
X-123616Y107376D01*
X-125183Y108943D01*
X-124825Y109302D01*
X-123260Y107737D01*
X-123166Y107647D01*
X-123076Y107568D01*
X-122992Y107500D01*
X-122911Y107439D01*
X-122835Y107390D01*
X-122764Y107347D01*
X-122700Y107314D01*
X-122641Y107286D01*
X-122586Y107263D01*
X-122539Y107247D01*
X-122498Y107234D01*
X-122463Y107226D01*
X-122437Y107220D01*
X-122418Y107216D01*
X-122402D01*
X-122337Y107218D01*
X-122271Y107229D01*
X-122206Y107247D01*
X-122139Y107271D01*
X-122077Y107302D01*
X-122014Y107333D01*
X-121955Y107369D01*
X-121900Y107404D01*
X-121850Y107443D01*
X-121802Y107478D01*
X-121763Y107510D01*
X-121726Y107539D01*
X-121699Y107566D01*
X-121677Y107584D01*
X-121660Y107602D01*
X-121618Y107647D01*
X-121581Y107688D01*
X-121546Y107731D01*
X-121515Y107774D01*
X-121487Y107817D01*
X-121464Y107856D01*
X-121442Y107894D01*
X-121423Y107929D01*
X-121405Y107962D01*
X-121391Y107992D01*
X-121381Y108017D01*
X-121374Y108040D01*
X-121366Y108060D01*
X-121362Y108072D01*
X-121360Y108082D01*
X-121358Y108083D01*
X-121346Y108131D01*
X-121340Y108176D01*
X-121334Y108221D01*
Y108264D01*
Y108307D01*
X-121338Y108346D01*
X-121348Y108419D01*
X-121362Y108479D01*
X-121368Y108505D01*
X-121376Y108524D01*
X-121381Y108542D01*
X-121385Y108554D01*
X-121387Y108563D01*
X-121389Y108565D01*
X-121411Y108610D01*
X-121438Y108657D01*
X-121472Y108706D01*
X-121505Y108755D01*
X-121579Y108853D01*
X-121618Y108900D01*
X-121656Y108945D01*
X-121695Y108988D01*
X-121730Y109028D01*
X-121761Y109063D01*
X-121791Y109092D01*
X-121812Y109118D01*
X-121830Y109135D01*
X-121842Y109147D01*
X-121846Y109151D01*
X-123411Y110716D01*
X-123052Y111074D01*
X-121485Y109508D01*
D02*
G37*
G36*
X-148548Y26941D02*
X-148399Y26913D01*
X-148271Y26869D01*
X-148160Y26824D01*
X-148110Y26796D01*
X-148071Y26774D01*
X-148032Y26752D01*
X-148005Y26730D01*
X-147982Y26713D01*
X-147966Y26702D01*
X-147955Y26696D01*
X-147949Y26691D01*
X-147844Y26585D01*
X-147760Y26469D01*
X-147694Y26347D01*
X-147638Y26225D01*
X-147605Y26119D01*
X-147588Y26075D01*
X-147577Y26036D01*
X-147572Y26003D01*
X-147566Y25980D01*
X-147561Y25964D01*
Y25958D01*
X-148032Y25875D01*
X-148055Y25997D01*
X-148088Y26103D01*
X-148127Y26191D01*
X-148166Y26263D01*
X-148204Y26319D01*
X-148238Y26358D01*
X-148260Y26386D01*
X-148265Y26391D01*
X-148338Y26447D01*
X-148415Y26491D01*
X-148487Y26519D01*
X-148560Y26541D01*
X-148626Y26552D01*
X-148676Y26563D01*
X-148721D01*
X-148820Y26558D01*
X-148909Y26535D01*
X-148987Y26508D01*
X-149054Y26480D01*
X-149103Y26447D01*
X-149142Y26419D01*
X-149170Y26397D01*
X-149176Y26391D01*
X-149237Y26325D01*
X-149281Y26252D01*
X-149309Y26180D01*
X-149331Y26114D01*
X-149342Y26053D01*
X-149353Y26008D01*
Y25975D01*
Y25969D01*
Y25964D01*
Y25903D01*
X-149342Y25847D01*
X-149314Y25753D01*
X-149276Y25670D01*
X-149231Y25598D01*
X-149187Y25548D01*
X-149148Y25509D01*
X-149120Y25486D01*
X-149115Y25481D01*
X-149109D01*
X-149015Y25431D01*
X-148926Y25392D01*
X-148831Y25364D01*
X-148748Y25348D01*
X-148676Y25337D01*
X-148615Y25326D01*
X-148543D01*
X-148521Y25331D01*
X-148493D01*
X-148438Y24915D01*
X-148510Y24931D01*
X-148576Y24943D01*
X-148632Y24954D01*
X-148682Y24959D01*
X-148721Y24965D01*
X-148770D01*
X-148887Y24954D01*
X-148993Y24931D01*
X-149087Y24898D01*
X-149164Y24859D01*
X-149226Y24821D01*
X-149270Y24787D01*
X-149298Y24765D01*
X-149309Y24754D01*
X-149381Y24671D01*
X-149436Y24582D01*
X-149475Y24493D01*
X-149497Y24404D01*
X-149514Y24332D01*
X-149520Y24271D01*
X-149525Y24249D01*
Y24232D01*
Y24221D01*
Y24216D01*
X-149514Y24093D01*
X-149486Y23982D01*
X-149453Y23888D01*
X-149409Y23805D01*
X-149364Y23738D01*
X-149331Y23688D01*
X-149303Y23655D01*
X-149292Y23644D01*
X-149203Y23566D01*
X-149109Y23511D01*
X-149015Y23472D01*
X-148926Y23444D01*
X-148848Y23427D01*
X-148787Y23422D01*
X-148765Y23416D01*
X-148732D01*
X-148632Y23422D01*
X-148537Y23444D01*
X-148454Y23472D01*
X-148388Y23505D01*
X-148332Y23533D01*
X-148288Y23561D01*
X-148265Y23583D01*
X-148254Y23588D01*
X-148188Y23666D01*
X-148132Y23755D01*
X-148082Y23849D01*
X-148043Y23949D01*
X-148016Y24032D01*
X-148005Y24071D01*
X-147999Y24105D01*
X-147994Y24132D01*
X-147988Y24155D01*
X-147982Y24166D01*
Y24171D01*
X-147511Y24110D01*
X-147522Y24021D01*
X-147538Y23938D01*
X-147588Y23783D01*
X-147649Y23650D01*
X-147683Y23594D01*
X-147716Y23539D01*
X-147749Y23489D01*
X-147783Y23450D01*
X-147810Y23411D01*
X-147838Y23383D01*
X-147855Y23361D01*
X-147871Y23344D01*
X-147882Y23333D01*
X-147888Y23328D01*
X-147955Y23278D01*
X-148021Y23228D01*
X-148088Y23189D01*
X-148160Y23155D01*
X-148299Y23100D01*
X-148432Y23067D01*
X-148493Y23056D01*
X-148548Y23044D01*
X-148598Y23039D01*
X-148643Y23033D01*
X-148676Y23028D01*
X-148726D01*
X-148831Y23033D01*
X-148926Y23044D01*
X-149020Y23061D01*
X-149109Y23083D01*
X-149192Y23111D01*
X-149264Y23139D01*
X-149337Y23172D01*
X-149398Y23205D01*
X-149459Y23233D01*
X-149509Y23267D01*
X-149553Y23294D01*
X-149586Y23322D01*
X-149614Y23344D01*
X-149636Y23361D01*
X-149647Y23372D01*
X-149653Y23378D01*
X-149720Y23444D01*
X-149775Y23516D01*
X-149825Y23588D01*
X-149869Y23661D01*
X-149903Y23727D01*
X-149936Y23799D01*
X-149980Y23933D01*
X-149992Y23994D01*
X-150003Y24049D01*
X-150014Y24099D01*
X-150019Y24143D01*
X-150025Y24177D01*
Y24205D01*
Y24221D01*
Y24227D01*
X-150019Y24360D01*
X-149997Y24482D01*
X-149964Y24587D01*
X-149930Y24676D01*
X-149897Y24748D01*
X-149864Y24804D01*
X-149842Y24837D01*
X-149836Y24848D01*
X-149758Y24931D01*
X-149675Y25004D01*
X-149586Y25059D01*
X-149497Y25104D01*
X-149420Y25137D01*
X-149359Y25159D01*
X-149337Y25165D01*
X-149320Y25170D01*
X-149309Y25176D01*
X-149303D01*
X-149398Y25226D01*
X-149475Y25276D01*
X-149542Y25331D01*
X-149597Y25381D01*
X-149642Y25425D01*
X-149675Y25464D01*
X-149692Y25486D01*
X-149697Y25498D01*
X-149742Y25575D01*
X-149775Y25653D01*
X-149803Y25731D01*
X-149819Y25803D01*
X-149830Y25864D01*
X-149836Y25908D01*
Y25942D01*
Y25953D01*
X-149830Y26047D01*
X-149814Y26141D01*
X-149792Y26225D01*
X-149764Y26297D01*
X-149736Y26358D01*
X-149714Y26408D01*
X-149697Y26436D01*
X-149692Y26447D01*
X-149636Y26530D01*
X-149570Y26602D01*
X-149503Y26663D01*
X-149436Y26719D01*
X-149381Y26757D01*
X-149331Y26791D01*
X-149298Y26807D01*
X-149292Y26813D01*
X-149287D01*
X-149187Y26857D01*
X-149087Y26891D01*
X-148987Y26918D01*
X-148898Y26935D01*
X-148826Y26946D01*
X-148765Y26952D01*
X-148626D01*
X-148548Y26941D01*
D02*
G37*
G36*
X-145302Y26991D02*
X-145124Y26963D01*
X-144969Y26930D01*
X-144897Y26907D01*
X-144830Y26885D01*
X-144769Y26863D01*
X-144713Y26841D01*
X-144669Y26824D01*
X-144625Y26807D01*
X-144597Y26791D01*
X-144575Y26780D01*
X-144558Y26774D01*
X-144553Y26769D01*
X-144403Y26674D01*
X-144275Y26563D01*
X-144164Y26452D01*
X-144070Y26341D01*
X-143998Y26241D01*
X-143970Y26197D01*
X-143948Y26158D01*
X-143925Y26130D01*
X-143914Y26108D01*
X-143909Y26092D01*
X-143903Y26086D01*
X-143825Y25914D01*
X-143770Y25736D01*
X-143731Y25559D01*
X-143703Y25398D01*
X-143692Y25326D01*
X-143687Y25253D01*
X-143681Y25198D01*
Y25142D01*
X-143676Y25104D01*
Y25070D01*
Y25048D01*
Y25043D01*
X-143687Y24843D01*
X-143709Y24648D01*
X-143737Y24476D01*
X-143759Y24393D01*
X-143775Y24321D01*
X-143792Y24254D01*
X-143814Y24193D01*
X-143831Y24138D01*
X-143842Y24093D01*
X-143859Y24060D01*
X-143864Y24032D01*
X-143875Y24016D01*
Y24010D01*
X-143959Y23844D01*
X-144053Y23694D01*
X-144153Y23566D01*
X-144203Y23516D01*
X-144247Y23466D01*
X-144292Y23422D01*
X-144336Y23383D01*
X-144375Y23350D01*
X-144408Y23328D01*
X-144430Y23305D01*
X-144453Y23289D01*
X-144464Y23283D01*
X-144469Y23278D01*
X-144547Y23233D01*
X-144625Y23194D01*
X-144791Y23133D01*
X-144958Y23089D01*
X-145119Y23061D01*
X-145196Y23050D01*
X-145263Y23039D01*
X-145324Y23033D01*
X-145374D01*
X-145418Y23028D01*
X-145479D01*
X-145590Y23033D01*
X-145696Y23044D01*
X-145796Y23056D01*
X-145890Y23078D01*
X-145979Y23106D01*
X-146062Y23133D01*
X-146140Y23161D01*
X-146212Y23194D01*
X-146273Y23222D01*
X-146334Y23250D01*
X-146378Y23278D01*
X-146423Y23305D01*
X-146451Y23328D01*
X-146478Y23339D01*
X-146489Y23350D01*
X-146495Y23355D01*
X-146573Y23422D01*
X-146639Y23489D01*
X-146700Y23566D01*
X-146761Y23644D01*
X-146861Y23799D01*
X-146939Y23955D01*
X-146972Y24027D01*
X-147000Y24093D01*
X-147022Y24155D01*
X-147039Y24205D01*
X-147055Y24249D01*
X-147067Y24282D01*
X-147072Y24304D01*
Y24310D01*
X-146562Y24438D01*
X-146539Y24349D01*
X-146512Y24265D01*
X-146484Y24188D01*
X-146456Y24116D01*
X-146423Y24049D01*
X-146389Y23994D01*
X-146351Y23938D01*
X-146317Y23888D01*
X-146290Y23844D01*
X-146256Y23810D01*
X-146229Y23777D01*
X-146206Y23749D01*
X-146184Y23733D01*
X-146168Y23716D01*
X-146162Y23710D01*
X-146156Y23705D01*
X-146101Y23661D01*
X-146040Y23627D01*
X-145918Y23566D01*
X-145801Y23522D01*
X-145685Y23494D01*
X-145585Y23472D01*
X-145546Y23466D01*
X-145507D01*
X-145474Y23461D01*
X-145435D01*
X-145307Y23466D01*
X-145185Y23489D01*
X-145074Y23516D01*
X-144974Y23550D01*
X-144897Y23583D01*
X-144863Y23599D01*
X-144835Y23611D01*
X-144813Y23622D01*
X-144797Y23633D01*
X-144786Y23638D01*
X-144780D01*
X-144675Y23716D01*
X-144586Y23799D01*
X-144508Y23894D01*
X-144447Y23982D01*
X-144397Y24060D01*
X-144364Y24127D01*
X-144353Y24155D01*
X-144342Y24171D01*
X-144336Y24182D01*
Y24188D01*
X-144292Y24332D01*
X-144258Y24476D01*
X-144231Y24621D01*
X-144214Y24754D01*
X-144208Y24815D01*
X-144203Y24870D01*
Y24920D01*
X-144197Y24959D01*
Y24993D01*
Y25020D01*
Y25037D01*
Y25043D01*
X-144203Y25187D01*
X-144214Y25320D01*
X-144236Y25442D01*
X-144258Y25553D01*
X-144275Y25648D01*
X-144286Y25686D01*
X-144297Y25720D01*
X-144303Y25747D01*
X-144308Y25764D01*
X-144314Y25775D01*
Y25781D01*
X-144369Y25908D01*
X-144430Y26025D01*
X-144497Y26119D01*
X-144569Y26202D01*
X-144630Y26269D01*
X-144680Y26313D01*
X-144719Y26341D01*
X-144725Y26352D01*
X-144730D01*
X-144847Y26425D01*
X-144974Y26480D01*
X-145096Y26519D01*
X-145213Y26541D01*
X-145318Y26558D01*
X-145363Y26563D01*
X-145402D01*
X-145429Y26569D01*
X-145474D01*
X-145613Y26563D01*
X-145740Y26541D01*
X-145846Y26508D01*
X-145940Y26474D01*
X-146012Y26436D01*
X-146068Y26408D01*
X-146101Y26386D01*
X-146112Y26375D01*
X-146201Y26291D01*
X-146284Y26197D01*
X-146351Y26097D01*
X-146406Y25997D01*
X-146451Y25908D01*
X-146467Y25864D01*
X-146478Y25831D01*
X-146489Y25803D01*
X-146501Y25781D01*
X-146506Y25770D01*
Y25764D01*
X-147006Y25881D01*
X-146972Y25980D01*
X-146939Y26069D01*
X-146895Y26153D01*
X-146856Y26236D01*
X-146811Y26308D01*
X-146761Y26375D01*
X-146717Y26441D01*
X-146673Y26497D01*
X-146628Y26541D01*
X-146589Y26585D01*
X-146551Y26624D01*
X-146523Y26652D01*
X-146495Y26680D01*
X-146473Y26696D01*
X-146462Y26702D01*
X-146456Y26708D01*
X-146378Y26757D01*
X-146301Y26807D01*
X-146223Y26846D01*
X-146140Y26880D01*
X-145973Y26930D01*
X-145823Y26963D01*
X-145751Y26980D01*
X-145690Y26985D01*
X-145629Y26991D01*
X-145579Y26996D01*
X-145540Y27002D01*
X-145485D01*
X-145302Y26991D01*
D02*
G37*
D35*
X-2454Y158833D02*
G03*
X-2454Y158833I-500J0D01*
G01*
X-156433Y24671D02*
G03*
X-156433Y24671I-500J0D01*
G01*
X-103859Y119774D02*
G03*
X-103859Y119774I-500J0D01*
G01*
X-8148Y166560D02*
X-7581Y160084D01*
X-20899Y165444D02*
X-16874Y165796D01*
X-20899Y165444D02*
X-20333Y158969D01*
X-15332Y159406D02*
X-12582Y159647D01*
X-12172Y166208D02*
X-8148Y166560D01*
X-165796Y16874D02*
X-165444Y20899D01*
X-159647Y12582D02*
X-159406Y15332D01*
X-166560Y8147D02*
X-160084Y7581D01*
X-166560Y8147D02*
X-166208Y12172D01*
X-165444Y20899D02*
X-158969Y20332D01*
X-113304Y122355D02*
X-108708Y117759D01*
X-122355Y113304D02*
X-119498Y116161D01*
X-122355Y113304D02*
X-117759Y108708D01*
X-114209Y112257D02*
X-112257Y114209D01*
X-116161Y119498D02*
X-113304Y122355D01*
M02*
