G04*
G04 #@! TF.GenerationSoftware,Altium Limited,Altium Designer,24.1.2 (44)*
G04*
G04 Layer_Physical_Order=4*
G04 Layer_Color=16711680*
%FSLAX25Y25*%
%MOIN*%
G70*
G04*
G04 #@! TF.SameCoordinates,00511CFA-0F04-46CA-AFF9-E4457DF0149F*
G04*
G04*
G04 #@! TF.FilePolarity,Positive*
G04*
G01*
G75*
%ADD22C,0.01000*%
%ADD25C,0.02362*%
G04:AMPARAMS|DCode=28|XSize=21mil|YSize=52mil|CornerRadius=0mil|HoleSize=0mil|Usage=FLASHONLY|Rotation=185.000|XOffset=0mil|YOffset=0mil|HoleType=Round|Shape=Rectangle|*
%AMROTATEDRECTD28*
4,1,4,0.00819,0.02682,0.01273,-0.02499,-0.00819,-0.02682,-0.01273,0.02499,0.00819,0.02682,0.0*
%
%ADD28ROTATEDRECTD28*%

G04:AMPARAMS|DCode=29|XSize=21mil|YSize=52mil|CornerRadius=0mil|HoleSize=0mil|Usage=FLASHONLY|Rotation=265.000|XOffset=0mil|YOffset=0mil|HoleType=Round|Shape=Rectangle|*
%AMROTATEDRECTD29*
4,1,4,-0.02499,0.01273,0.02682,0.00819,0.02499,-0.01273,-0.02682,-0.00819,-0.02499,0.01273,0.0*
%
%ADD29ROTATEDRECTD29*%

%ADD30R,0.05709X0.05906*%
G04:AMPARAMS|DCode=31|XSize=59.06mil|YSize=57.09mil|CornerRadius=0mil|HoleSize=0mil|Usage=FLASHONLY|Rotation=45.000|XOffset=0mil|YOffset=0mil|HoleType=Round|Shape=Rectangle|*
%AMROTATEDRECTD31*
4,1,4,-0.00070,-0.04106,-0.04106,-0.00070,0.00070,0.04106,0.04106,0.00070,-0.00070,-0.04106,0.0*
%
%ADD31ROTATEDRECTD31*%

G04:AMPARAMS|DCode=32|XSize=21mil|YSize=52mil|CornerRadius=0mil|HoleSize=0mil|Usage=FLASHONLY|Rotation=225.000|XOffset=0mil|YOffset=0mil|HoleType=Round|Shape=Rectangle|*
%AMROTATEDRECTD32*
4,1,4,-0.01096,0.02581,0.02581,-0.01096,0.01096,-0.02581,-0.02581,0.01096,-0.01096,0.02581,0.0*
%
%ADD32ROTATEDRECTD32*%

D22*
X-152425Y22894D02*
X-145315D01*
X-118475Y44436D02*
X-114039Y48871D01*
X-120693Y22894D02*
X-118475Y25112D01*
Y44436D01*
X-134882Y50335D02*
X-116161Y69056D01*
Y106700D01*
X-129272Y47124D02*
X-17643Y158752D01*
Y158926D01*
X-160807Y30959D02*
X-152876D01*
X-150059D01*
X-46000Y138277D02*
Y138579D01*
X-83277Y101000D02*
X-46000Y138277D01*
X-129272Y33421D02*
Y47124D01*
X-106289Y101000D02*
X-83277D01*
X-18416Y159698D02*
X-17643Y158926D01*
X-21302Y159698D02*
X-18416D01*
X-28000Y153000D02*
X-21302Y159698D01*
X-114464Y109174D02*
X-106289Y101000D01*
X-115560Y110270D02*
X-114464Y109174D01*
X-34866Y151000D02*
Y151369D01*
X-35358Y151861D02*
Y157765D01*
Y151861D02*
X-34866Y151369D01*
X-42642Y151000D02*
Y157765D01*
Y157863D02*
X-37139Y163365D01*
X-24114D01*
X-42642Y157765D02*
Y157863D01*
X-21030Y166450D02*
X-14562D01*
X-24114Y163365D02*
X-21030Y166450D01*
X-35358Y157765D02*
Y157863D01*
X-33004Y160217D01*
X-24114D01*
X-22005Y162327D01*
X-11706D01*
X-10192Y160813D01*
Y159404D02*
Y160813D01*
X-129272Y33421D02*
X-123850Y27999D01*
X-14562Y166450D02*
X-14427Y166315D01*
X-101284Y119647D02*
Y122976D01*
X-99035Y125225D01*
Y126336D01*
X-98775Y126596D01*
X-103076Y128155D02*
Y129773D01*
X-102815Y130034D01*
X-106434Y124797D02*
Y124797D01*
X-103076Y128155D01*
X-109174Y114464D02*
X-108396D01*
X-101284Y119647D02*
X-101284D01*
X-110270Y115560D02*
X-109174Y114464D01*
X-108396D02*
X-106672Y116188D01*
X-104743D01*
X-101284Y119647D01*
X-116274Y117051D02*
X-113268Y120057D01*
X-111174D01*
X-106434Y124797D02*
X-106434D01*
X-118148Y118148D02*
X-117051Y117051D01*
X-116274D01*
X-111174Y120057D02*
X-106434Y124797D01*
X-157134Y22989D02*
X-154779Y25343D01*
X-157134Y18416D02*
Y22989D01*
X-157906Y17643D02*
X-157134Y18416D01*
X-158752Y17643D02*
X-157906D01*
X-163496Y26678D02*
X-162112Y25294D01*
X-166450Y14562D02*
Y20858D01*
X-162063Y25245D02*
Y25343D01*
X-166450Y20858D02*
X-162063Y25245D01*
X-163496Y26678D02*
Y35354D01*
X-158126Y40725D01*
Y47165D01*
X-154779Y25248D02*
Y25343D01*
Y25248D02*
X-152425Y22894D01*
X-150059Y30959D02*
X-146920Y27821D01*
X-147181Y27560D02*
X-146920Y27821D01*
X-134882D02*
Y50335D01*
X-116161Y106700D02*
X-114464Y108396D01*
Y109174D01*
X-163496Y7508D02*
X-160813Y10192D01*
X-164989Y7508D02*
X-163496D01*
X-160813Y10192D02*
X-159404D01*
X-158752Y17643D02*
X-158617Y17508D01*
D25*
X-34824Y141572D02*
D03*
X-114039Y48871D02*
D03*
X-120693Y22894D02*
D03*
X-152876Y30959D02*
D03*
X-146920Y48871D02*
D03*
X-7592Y132819D02*
D03*
X-7581Y143405D02*
D03*
X-23120Y128221D02*
D03*
X-46000Y138579D02*
D03*
X-28000Y153000D02*
D03*
X-160807Y30803D02*
D03*
X-34866Y151000D02*
D03*
X-42642D02*
D03*
X-102815Y130034D02*
D03*
X-98775Y126596D02*
D03*
X-160807Y30959D02*
D03*
X-131732Y20424D02*
D03*
X-145315Y22709D02*
D03*
X-143137Y7687D02*
D03*
X-132405D02*
D03*
X-146920Y27821D02*
D03*
X-158126Y47165D02*
D03*
X-123850Y27999D02*
D03*
X-134882Y27821D02*
D03*
X-164989Y7508D02*
D03*
D28*
X-14562Y166450D02*
D03*
X-17643Y158752D02*
D03*
X-10192Y159404D02*
D03*
D29*
X-158752Y17643D02*
D03*
X-159404Y10192D02*
D03*
X-166450Y14562D02*
D03*
D30*
X-35358Y157765D02*
D03*
X-42642D02*
D03*
X-154779Y25343D02*
D03*
X-162063Y25343D02*
D03*
D31*
X-101284Y119647D02*
D03*
X-106434Y124797D02*
D03*
D32*
X-118148Y118148D02*
D03*
X-115560Y110270D02*
D03*
X-110270Y115560D02*
D03*
M02*
